<svg width="58" height="59" viewBox="0 0 58 59" fill="none" xmlns="http://www.w3.org/2000/svg">
<g clip-path="url(#clip0_456_840)">
<path d="M37.6067 9.87769C37.6551 9.49109 37.6937 9.10448 37.6937 8.70822C37.6937 8.31195 37.6551 7.92535 37.6067 7.53874L36.3889 6.91051C36.2053 6.13731 35.896 5.41243 35.4901 4.75521L35.9057 3.44076C35.4321 2.8222 34.8812 2.26162 34.253 1.78804L32.9385 2.20363C32.2813 1.7977 31.5564 1.49808 30.7832 1.30478L30.155 0.0869855C29.7684 0.0386602 29.3818 0 28.9855 0C28.5892 0 28.2026 0.0386602 27.816 0.0869855L27.1878 1.30478C26.4146 1.48842 25.6897 1.7977 25.0325 2.20363L23.718 1.78804C23.0995 2.26162 22.5389 2.81253 22.0653 3.44076L22.4809 4.75521C22.075 5.41243 21.7754 6.13731 21.5821 6.91051L20.3643 7.53874C20.3159 7.92535 20.2773 8.31195 20.2773 8.70822C20.2773 9.10448 20.3159 9.49109 20.3643 9.87769L21.5821 10.5059C21.7657 11.2791 22.075 12.004 22.4809 12.6612L22.0653 13.9757C22.5389 14.5942 23.0898 15.1548 23.718 15.6284L25.0325 15.2128C25.6897 15.6187 26.4146 15.9183 27.1878 16.1116L27.816 17.3294C28.2026 17.3778 28.5892 17.4164 28.9855 17.4164C29.3818 17.4164 29.7684 17.3778 30.155 17.3294L30.7832 16.1116C31.5564 15.928 32.2813 15.6187 32.9385 15.2128L34.253 15.6284C34.8715 15.1548 35.4321 14.6039 35.9057 13.9757L35.4901 12.6612C35.896 12.004 36.1956 11.2791 36.3889 10.5059L37.6067 9.87769ZM28.9952 12.5742C26.8592 12.5742 25.1291 10.8442 25.1291 8.70822C25.1291 6.57224 26.8592 4.84219 28.9952 4.84219C31.1311 4.84219 32.8612 6.57224 32.8612 8.70822C32.8612 10.8442 31.1311 12.5742 28.9952 12.5742Z" fill="#EFC235"/>
<path d="M27.9127 50.2196L0.270622 38.2349C0.144976 38.177 0 38.2736 0 38.4089V42.6035C0 42.6809 0.0386602 42.7389 0.106316 42.7775L3.75971 44.6042C3.82736 44.6332 3.86602 44.7009 3.86602 44.7782V50.1326C3.86602 50.2099 3.91435 50.2873 3.99167 50.3163L8.43759 52.0946C8.56324 52.143 8.69855 52.056 8.69855 51.911V45.7254C8.69855 45.59 8.84353 45.4934 8.96917 45.5514L15.4641 48.3349V51.1088C15.4641 51.1861 15.5124 51.2538 15.5801 51.2828L22.1136 54.0856C22.1813 54.1146 22.2296 54.1823 22.2296 54.2596V55.9413C22.2296 56.0186 22.278 56.0863 22.3456 56.1153L27.758 58.4349C27.8837 58.4929 28.0287 58.3962 28.0287 58.2609V50.3936C28.0287 50.3163 27.9803 50.2486 27.9127 50.2196Z" fill="#5D41DF"/>
<path d="M57.7197 38.2349L30.0777 50.2099C30.01 50.2389 29.9617 50.3066 29.9617 50.3839V58.2513C29.9617 58.3866 30.1066 58.4832 30.2323 58.4252L35.6447 56.1056C35.7124 56.0766 35.7607 56.009 35.7607 55.9317V52.5199C35.7607 52.4426 35.809 52.3653 35.8864 52.3363L43.2318 49.3981C43.3574 49.3498 43.4927 49.4367 43.4927 49.5817V55.777C43.4927 55.9123 43.6281 56.009 43.7537 55.9607L48.1996 54.1823C48.2769 54.1533 48.3253 54.0856 48.3253 53.9986V50.4032C48.3253 50.3259 48.3736 50.2486 48.4509 50.2196L53.0322 48.5765C53.1095 48.5476 53.1578 48.4799 53.1578 48.3929V44.7975C53.1578 44.7202 53.2061 44.6429 53.2835 44.6139L57.8744 42.7775C57.9517 42.7485 58 42.6809 58 42.5939V38.4089C58 38.2736 57.855 38.177 57.7294 38.2349H57.7197Z" fill="#5D41DF"/>
<path d="M57.8647 30.8896L28.9952 20.3064L0.125646 30.8896C0.0483253 30.9186 0 30.9863 0 31.0733V35.6448C0 35.7222 0.0483253 35.7898 0.115981 35.8188L28.9178 48.2964C28.9662 48.3157 29.0242 48.3157 29.0725 48.2964L57.8744 35.8188C57.942 35.7898 57.9903 35.7222 57.9903 35.6448V31.0733C57.9903 30.9959 57.942 30.9186 57.8647 30.8896ZM28.0287 43.5992C28.0287 43.7345 27.8934 43.8311 27.7677 43.7828L2.05866 33.4992C1.98134 33.4702 1.93301 33.4025 1.93301 33.3156V31.9914C1.93301 31.8561 2.06832 31.7595 2.19397 31.8078L27.903 42.0914C27.9803 42.1204 28.0287 42.1881 28.0287 42.2751V43.5992ZM56.0573 33.3156C56.0573 33.3929 56.009 33.4702 55.9317 33.4992L30.2226 43.7828C30.097 43.8311 29.9617 43.7442 29.9617 43.5992V42.2751C29.9617 42.1978 30.01 42.1204 30.0873 42.0914L55.7964 31.8078C55.922 31.7595 56.0573 31.8465 56.0573 31.9914V33.3156Z" fill="#5D41DF"/>
</g>
<defs>
<clipPath id="clip0_456_840">
<rect width="58" height="58.4518" fill="white"/>
</clipPath>
</defs>
</svg>
