<svg width="58" height="58" viewBox="0 0 58 58" fill="none" xmlns="http://www.w3.org/2000/svg">
<path d="M37.25 1.47001C34.16 4.56001 31.09 7.65001 27.99 10.73C27.38 11.34 27.38 12.38 27.99 13C31.08 16.08 34.16 19.17 37.25 22.26C37.86 22.87 38.9 22.87 39.51 22.26L41.16 20.6C41.77 19.99 41.77 18.95 41.16 18.34L38.27 15.45H49.07V42.19H38.66L41.16 39.69C41.78 39.07 41.78 38.04 41.16 37.42L39.51 35.77C39.2 35.46 38.78 35.3 38.38 35.3C37.98 35.3 37.55 35.46 37.24 35.77C34.15 38.86 31.07 41.95 27.98 45.03C27.37 45.65 27.37 46.68 27.98 47.29C31.07 50.37 34.15 53.46 37.24 56.55C37.85 57.16 38.89 57.16 39.5 56.55L41.15 54.9C41.76 54.29 41.76 53.25 41.15 52.63L38.64 50.12H54.97C56.07 50.12 56.99 49.2 56.99 48.1V9.53001C56.99 8.43001 56.08 7.51001 54.97 7.51001H39.02L41.15 5.38001C41.77 4.76001 41.77 3.73001 41.15 3.11001L39.5 1.46001C38.91 0.87001 37.8 0.90001 37.23 1.46001L37.25 1.47001Z" fill="#EFC235"/>
<path d="M4.08 34.17C2.39 34.17 1 35.57 1 37.26V53.92C1 55.61 2.39 57 4.08 57H20.74C22.43 57 23.82 55.61 23.82 53.92V37.26C23.82 35.57 22.43 34.17 20.74 34.17H4.08Z" fill="#5D41DF"/>
<path d="M13.88 38.4399C11.64 38.4399 9.79999 40.2799 9.79999 42.5199C9.79999 44.7599 11.64 46.5999 13.88 46.5999C16.12 46.5999 17.96 44.7599 17.96 42.5199C17.96 40.2799 16.12 38.4399 13.88 38.4399Z" fill="#EFC235"/>
<path d="M4.08 1C2.39 1 1 2.39 1 4.08V20.74C1 22.43 2.39 23.82 4.08 23.82H20.74C22.43 23.82 23.82 22.43 23.82 20.74V4.08C23.82 2.39 22.43 1 20.74 1H4.08Z" fill="#5D41DF"/>
<path d="M13.88 5.26001C11.64 5.26001 9.79999 7.10001 9.79999 9.34001C9.79999 11.58 11.64 13.42 13.88 13.42C16.12 13.42 17.96 11.58 17.96 9.34001C17.96 7.10001 16.12 5.26001 13.88 5.26001Z" fill="#EFC235"/>
<path d="M7.28 14.37C7.03 14.37 6.79 14.45 6.6 14.61L1 19.48V20.74C1 22.43 2.39 23.82 4.08 23.82H20.73C22.42 23.82 23.81 22.43 23.81 20.74V20.38L18.21 16.64C18.06 16.54 17.88 16.48 17.69 16.47C17.5 16.46 17.32 16.51 17.16 16.61L12.58 19.32L7.92 14.67C7.75 14.49 7.51 14.39 7.26 14.38L7.28 14.37Z" fill="#EFC235"/>
<path d="M7.27 47.55C7.02 47.55 6.78 47.63 6.6 47.79L1 52.65V53.91C1 55.6 2.39 56.99 4.08 56.99H20.73C22.42 56.99 23.81 55.6 23.81 53.91V53.55L18.21 49.8C18.06 49.7 17.88 49.64 17.69 49.63C17.5 49.62 17.32 49.67 17.16 49.77L12.58 52.48L7.92 47.82C7.74 47.65 7.51 47.54 7.26 47.54L7.27 47.55Z" fill="#FBC312"/>
<path d="M4.08 33.17C1.84 33.17 0 35.02 0 37.26V53.92C0 56.16 1.84 58 4.08 58H20.74C22.98 58 24.82 56.16 24.82 53.92V37.26C24.82 35.02 22.98 33.17 20.74 33.17H4.08ZM4.08 35.17H20.74C21.88 35.17 22.82 36.11 22.82 37.26V53.92C22.82 55.06 21.88 56 20.74 56H4.08C2.94 56 2 55.06 2 53.92V37.26C2 36.12 2.94 35.17 4.08 35.17Z" fill="black"/>
<path d="M13.88 37.4399C11.09 37.4399 8.79999 39.7299 8.79999 42.5199C8.79999 45.3099 11.09 47.5999 13.88 47.5999C16.67 47.5999 18.96 45.3099 18.96 42.5199C18.96 39.7299 16.67 37.4399 13.88 37.4399ZM13.88 39.4399C15.58 39.4399 16.96 40.8299 16.96 42.5199C16.96 44.2099 15.58 45.5999 13.88 45.5999C12.18 45.5999 10.8 44.2099 10.8 42.5199C10.8 40.8299 12.19 39.4399 13.88 39.4399Z" fill="black"/>
<path d="M4.08 0C1.84 0 0 1.84 0 4.08V20.74C0 22.98 1.84 24.82 4.08 24.82H20.74C22.98 24.82 24.82 22.98 24.82 20.74V4.08C24.82 1.84 22.98 0 20.74 0H4.08ZM4.08 2H20.74C21.88 2 22.82 2.94 22.82 4.08V20.74C22.82 21.88 21.88 22.82 20.74 22.82H4.08C2.94 22.82 2 21.88 2 20.74V4.08C2 2.94 2.94 2 4.08 2Z" fill="black"/>
<path d="M13.88 4.26001C11.09 4.26001 8.79999 6.55001 8.79999 9.34001C8.79999 12.13 11.09 14.42 13.88 14.42C16.67 14.42 18.96 12.13 18.96 9.34001C18.96 6.55001 16.67 4.26001 13.88 4.26001ZM13.88 6.26001C15.58 6.26001 16.96 7.65001 16.96 9.34001C16.96 11.03 15.58 12.42 13.88 12.42C12.18 12.42 10.8 11.04 10.8 9.34001C10.8 7.64001 12.19 6.26001 13.88 6.26001Z" fill="black"/>
<path d="M5.94 13.86L0.339996 18.72L1.65 20.23L7.23 15.38L11.87 20.02C12.19 20.34 12.69 20.4 13.08 20.17L17.65 17.47L23.24 21.21L24.35 19.55L18.75 15.81C18.12 15.39 17.29 15.36 16.64 15.75L12.72 18.06L8.61 13.96C8.26 13.6 7.78 13.4 7.28 13.38C6.78 13.36 6.29 13.53 5.91 13.86H5.94Z" fill="black"/>
<path d="M1.66 53.41L7.25 48.56L11.89 53.2C12.21 53.52 12.71 53.59 13.11 53.35L17.68 50.64L23.27 54.38L24.38 52.72L18.78 48.97C18.15 48.55 17.32 48.52 16.67 48.91L12.75 51.23L8.64 47.12C8.29 46.77 7.81 46.56 7.31 46.55C6.81 46.53 6.32 46.71 5.95 47.04L0.339996 51.9L1.65 53.41H1.66Z" fill="black"/>
</svg>
