<svg width="55" height="61" viewBox="0 0 55 61" fill="none" xmlns="http://www.w3.org/2000/svg">
<g clip-path="url(#clip0_456_740)">
<path d="M51.2069 38.9753V21.7143C53.3678 21.2734 55 19.3591 55 17.069C55 14.4541 52.8735 12.3276 50.2586 12.3276C48.8054 12.3276 47.5193 12.9985 46.6481 14.0321L32.015 6.11164C32.1477 5.67425 32.2402 5.22144 32.2402 4.74138C32.2402 2.12651 30.1137 0 27.4988 0C24.8839 0 22.7574 2.12651 22.7574 4.74138C22.7574 5.22144 22.8499 5.67543 22.9827 6.11164L8.34957 14.0321C7.47953 12.9997 6.19224 12.3276 4.73901 12.3276C2.12651 12.3276 0 14.4541 0 17.069C0 19.3579 1.63222 21.2734 3.7931 21.7143V38.9753C1.63222 39.4163 0 41.3306 0 43.6207C0 46.2356 2.12651 48.3621 4.74138 48.3621C6.19461 48.3621 7.48071 47.6912 8.35194 46.6575L22.9827 54.5863C22.8511 55.0202 22.7586 55.4718 22.7586 55.9495C22.7586 58.5643 24.8851 60.6908 27.5 60.6908C30.1149 60.6908 32.2414 58.5643 32.2414 55.9495C32.2414 55.473 32.1489 55.0213 32.0173 54.5863L46.6481 46.6575C47.5181 47.69 48.8054 48.3621 50.2586 48.3621C52.8735 48.3621 55 46.2356 55 43.6207C55 41.3318 53.3678 39.4163 51.2069 38.9753ZM31.1153 52.9173C30.2453 51.8814 28.9556 51.2069 27.5 51.2069C26.0444 51.2069 24.7547 51.8814 23.8847 52.9173L9.25636 44.9909C9.38912 44.5536 9.48157 44.0996 9.48157 43.6207C9.48157 41.3318 7.84935 39.4163 5.68847 38.9753V21.7143C7.84935 21.2734 9.48157 19.3591 9.48157 17.069C9.48157 16.5889 9.38912 16.1349 9.25636 15.6987L23.8894 7.77823C24.7595 8.81067 26.0468 9.48276 27.5 9.48276C28.9532 9.48276 30.2393 8.81185 31.1106 7.77823L45.7436 15.6987C45.6109 16.1361 45.5184 16.5889 45.5184 17.069C45.5184 19.3579 47.1506 21.2734 49.3115 21.7143V38.9753C47.1506 39.4163 45.5184 41.3306 45.5184 43.6207C45.5184 44.1008 45.6109 44.5547 45.7436 44.9909L31.1153 52.9173Z" fill="#5D41DF"/>
<path d="M41.7052 21.2663L27.5 13.2759L13.2948 21.2663L27.5 29.2579L41.7052 21.2663Z" fill="#EFC235"/>
<path d="M28.4483 38.8793C28.4483 39.4032 28.0239 39.8275 27.5 39.8275C26.9761 39.8275 26.5517 39.4032 26.5517 38.8793V30.8995L12.3276 22.8984V38.8793L27.5 47.4137L42.6724 38.8793V22.8984L28.4483 30.8995V38.8793ZM27.5 43.6206C26.9761 43.6206 26.5517 43.1963 26.5517 42.6724C26.5517 42.1484 26.9761 41.7241 27.5 41.7241C28.0239 41.7241 28.4483 42.1484 28.4483 42.6724C28.4483 43.1963 28.0239 43.6206 27.5 43.6206Z" fill="#EFC235"/>
</g>
<defs>
<clipPath id="clip0_456_740">
<rect width="55" height="60.6908" fill="white"/>
</clipPath>
</defs>
</svg>
