<svg width="75" height="75" viewBox="0 0 75 75" fill="none" xmlns="http://www.w3.org/2000/svg">
<g clip-path="url(#clip0_456_700)">
<path d="M50.7875 46.4156L50.1625 46.0656L49.475 48.2031L51.25 53.5281C51.3375 53.775 51.3375 54.0437 51.25 54.2906L49.525 59.7031L51.1 65.5531C51.2281 66 51.1 66.4812 50.7625 66.8031C50.4328 67.1266 49.9531 67.2422 49.5125 67.1031L47.625 66.5406H47.4L45 65.7531L41.25 67.3906C41.0891 67.4641 40.9141 67.5016 40.7375 67.5031C40.5641 67.5031 40.3937 67.4656 40.2375 67.3906L36.5875 65.7906L32.95 67.3906C32.6344 67.5406 32.2656 67.5406 31.95 67.3906L28.3 65.7906L24.6625 67.3906C24.3469 67.5406 23.9781 67.5406 23.6625 67.3906L20 65.7531L15.5375 67.0781C15.1859 67.1828 14.8078 67.1281 14.5 66.9281L14.3125 66.7656C13.9766 66.4437 13.8469 65.9625 13.975 65.5156L15.55 59.6281L14.075 55.1281L13.825 54.3406C13.7375 54.0937 13.7375 53.825 13.825 53.5781L15.5375 48.2531L13.825 42.9281C13.7375 42.6812 13.7375 42.4125 13.825 42.1656L15.5375 36.8406L13.825 31.5156C13.7375 31.2687 13.7375 31 13.825 30.7531L15.55 25.3906L13.975 19.4906C13.8469 19.0437 13.975 18.5625 14.3125 18.2406C14.6422 17.9172 15.1219 17.8016 15.5625 17.9406L20.0125 19.1906L23.7625 17.5531C24.0844 17.4109 24.4531 17.4109 24.775 17.5531L28.4125 19.1531L32.05 17.5531C32.1953 17.5094 32.3484 17.4922 32.5 17.5031V13.8406C32.5 12.9625 32.6344 12.0906 32.9 11.2531H12.5C10.4297 11.2531 8.75 12.9328 8.75 15.0031V70.0031C8.75 72.0734 10.4297 73.7531 12.5 73.7531H52.5C54.5703 73.7531 56.25 72.0734 56.25 70.0031V47.4031C55.8375 47.4734 55.4188 47.5078 55 47.5031C53.5266 47.5016 52.0781 47.1266 50.7875 46.4156Z" fill="#5D41DF"/>
<path d="M16.95 64.0406L19.725 63.2282C20 63.1282 20.3 63.1282 20.575 63.2282L24.225 64.8407L27.8625 63.2282C28.1813 63.0891 28.5438 63.0891 28.8625 63.2282L32.5 64.8906L36.1375 63.2782C36.4562 63.1391 36.8188 63.1391 37.1375 63.2782L40.7875 64.8906L44.125 63.4156L27.1375 46.4032C26.6516 45.9125 25.8594 45.9094 25.3703 46.3953C25.3672 46.3985 25.3656 46.4 25.3625 46.4032L16.6875 55.0781L18.0375 59.2656C18.1016 59.4906 18.1016 59.7282 18.0375 59.9532L16.95 64.0406Z" fill="#EFC235"/>
<path d="M61.25 70.0031H66.25V75.0031H61.25V70.0031Z" fill="#5E40E7"/>
<path d="M0 6.25311H5V11.2531H0V6.25311Z" fill="#5E40E7"/>
<path d="M71.8125 8.42813L58 0.778125C56.1344 -0.259375 53.8656 -0.259375 52 0.778125L38.1875 8.42813C36.2297 9.52813 35.0125 11.5953 35 13.8406V31.1656C35.0078 33.4156 36.2266 35.4875 38.1875 36.5906L52 44.2281C53.8687 45.2516 56.1313 45.2516 58 44.2281L71.8125 36.5906C73.7734 35.4875 74.9922 33.4156 75 31.1656V13.8406C74.9875 11.5953 73.7703 9.52813 71.8125 8.42813ZM50 27.5031C50 28.1938 49.4406 28.7531 48.75 28.7531C48.3062 28.75 47.8969 28.5125 47.675 28.1281L42.5 21.2531V27.5031C42.5 28.1938 41.9406 28.7531 41.25 28.7531C40.5594 28.7531 40 28.1938 40 27.5031V17.5031C40 16.8125 40.5594 16.2531 41.25 16.2531C41.7266 16.2594 42.1578 16.5359 42.3625 16.9656C42.3422 16.9094 42.3172 16.8547 42.2875 16.8031L47.5 23.7531V17.5031C47.5 16.8125 48.0594 16.2531 48.75 16.2531C49.4406 16.2531 50 16.8125 50 17.5031V27.5031ZM58.75 21.2531C59.4406 21.2531 60 21.8125 60 22.5031C60 23.1938 59.4406 23.7531 58.75 23.7531H55V27.5031C55 28.1938 54.4406 28.7531 53.75 28.7531C53.0594 28.7531 52.5 28.1938 52.5 27.5031V17.5031C52.5 16.8125 53.0594 16.2531 53.75 16.2531H58.75C59.4406 16.2531 60 16.8125 60 17.5031C60 18.1938 59.4406 18.7531 58.75 18.7531H55V21.2531H58.75ZM68.75 18.7531H67.5V27.5031C67.5 28.1938 66.9406 28.7531 66.25 28.7531C65.5594 28.7531 65 28.1938 65 27.5031V18.7531H63.75C63.0594 18.7531 62.5 18.1938 62.5 17.5031C62.5 16.8125 63.0594 16.2531 63.75 16.2531H68.75C69.4406 16.2531 70 16.8125 70 17.5031C70 18.1938 69.4406 18.7531 68.75 18.7531Z" fill="#EFC235"/>
<path d="M31.25 33.7531C31.25 30.9922 29.0109 28.7531 26.25 28.7531C23.4891 28.7531 21.25 30.9922 21.25 33.7531C21.25 36.5141 23.4891 38.7531 26.25 38.7531C29.0109 38.7531 31.25 36.5141 31.25 33.7531Z" fill="#EFC235"/>
<rect x="37.6562" y="11.7188" width="34.0625" height="22.0313" fill="#EFC235"/>
<path d="M38.244 24.5565V23.8565H39.182V24.2695L39.413 24.5005H40.862L41.1 24.2625V23.4505L40.869 23.2195H39.014L38.258 22.4635V21.1685L39.014 20.4125H41.226L41.982 21.1685V21.8755H41.044V21.4555L40.813 21.2245H39.427L39.196 21.4555V22.1765L39.427 22.4075H41.282L42.038 23.1635V24.5425L41.268 25.3125H39L38.244 24.5565ZM42.7361 24.5075V21.2175L43.5411 20.4125H46.0611L46.8661 21.2175V24.5075L46.0611 25.3125H43.5411L42.7361 24.5075ZM45.5571 24.5005L45.9141 24.1435V21.5815L45.5571 21.2245H44.0451L43.6881 21.5815V24.1435L44.0451 24.5005H45.5571ZM47.7074 20.4125H48.6594V24.5075H51.1094V25.3125H47.7074V20.4125ZM51.6313 20.4125H54.7673L55.6073 21.2525V24.4725L54.7673 25.3125H51.6313V20.4125ZM54.2983 24.5005L54.6553 24.1435V21.5815L54.2983 21.2245H52.5833V24.5005H54.2983ZM58.2878 24.5075V21.2175L59.0928 20.4125H61.6128L62.4178 21.2175V24.5075L61.6128 25.3125H59.0928L58.2878 24.5075ZM61.1088 24.5005L61.4658 24.1435V21.5815L61.1088 21.2245H59.5968L59.2398 21.5815V24.1435L59.5968 24.5005H61.1088ZM63.2592 24.4725V20.4125H64.2112V24.1435L64.5682 24.5005H65.9402L66.2972 24.1435V20.4125H67.2492V24.4725L66.4092 25.3125H64.0992L63.2592 24.4725ZM69.2736 21.2175H67.8106V20.4125H71.6886V21.2175H70.2256V25.3125H69.2736V21.2175Z" fill="black"/>
</g>
<defs>
<clipPath id="clip0_456_700">
<rect width="75" height="75.0031" fill="white"/>
</clipPath>
</defs>
</svg>
