<svg width="1920" height="158" viewBox="0 0 1920 158" fill="none" xmlns="http://www.w3.org/2000/svg">
<g clip-path="url(#clip0_40_706)">
<path d="M1350 76H0V158H1920V0H1426L1350 76Z" fill="#1A1A1A"/>
<path d="M1636.3 66.2615H1626.93V77.492H1621.72V50.5762H1636.3C1640.57 50.5762 1643.69 53.2186 1643.69 56.8374V59.9476C1643.69 63.5664 1640.57 66.2556 1636.3 66.2556V66.2615ZM1638.49 56.5159C1638.49 55.5864 1637.6 54.7971 1636.66 54.7971H1626.93V61.9412H1636.66C1637.6 61.9412 1638.49 61.1519 1638.49 60.2691V56.5101V56.5159Z" fill="white"/>
<path d="M1647.6 77.4862V50.5762H1667.18V54.8907H1652.8V61.8476H1663.95V66.2556H1652.8V73.1717H1667.18V77.4862H1647.6Z" fill="white"/>
<path d="M1689.01 77.4862V69.319L1676.92 58.0885V77.4803H1671.61V50.5762H1676.09L1689.01 62.6836V50.5762H1694.31V77.4862H1689.01Z" fill="white"/>
<path d="M1711.87 54.8907V77.4862H1706.3V54.8907H1697.18V50.5762H1721.03V54.8907H1711.87Z" fill="white"/>
<path d="M1745.25 77.4862H1739.99V68.9975H1727.6V77.4862H1722.34V61.111C1722.34 59.211 1722.71 58.0008 1724.32 56.6562L1731.51 50.5762H1736.09L1743.28 56.6562C1744.89 58.0008 1745.26 59.211 1745.26 61.111V77.4862H1745.25ZM1739.99 61.339C1739.99 60.3627 1739.94 60.1347 1739.31 59.5793L1733.74 54.6627C1733.48 55.0368 1728.27 59.5793 1728.27 59.5793C1727.65 60.1347 1727.59 60.3685 1727.59 61.339V64.911H1739.99V61.339Z" fill="white"/>
<path d="M1765.2 77.4862H1757.07C1752.8 77.4862 1749.68 74.8437 1749.68 71.2249V56.8433C1749.68 53.2245 1752.8 50.582 1757.07 50.582H1765.2C1769.47 50.582 1772.59 53.2245 1772.59 56.8433V58.7433H1767.28V56.5159C1767.28 55.5864 1766.4 54.7971 1765.46 54.7971H1756.81C1755.87 54.7971 1754.99 55.5864 1754.99 56.5159V71.412C1754.99 72.3415 1755.87 73.1249 1756.81 73.1249H1765.46C1766.4 73.1249 1767.28 72.3357 1767.28 71.412V66.168H1761.09V61.8535H1772.59V71.2249C1772.59 74.8437 1769.47 77.4862 1765.2 77.4862Z" fill="white"/>
<path d="M1793.47 77.4862H1784.42C1780.15 77.4862 1777.02 74.8437 1777.02 71.2249V56.8433C1777.02 53.2245 1780.15 50.582 1784.42 50.582H1793.47C1797.74 50.582 1800.87 53.2245 1800.87 56.8433V71.2249C1800.87 74.8437 1797.74 77.4862 1793.47 77.4862ZM1795.66 56.6094C1795.66 55.6799 1794.77 54.8907 1793.84 54.8907H1784.04C1783.1 54.8907 1782.22 55.6799 1782.22 56.6094V71.4588C1782.22 72.3883 1783.1 73.1717 1784.04 73.1717H1793.84C1794.77 73.1717 1795.66 72.3825 1795.66 71.4588V56.6094Z" fill="white"/>
<path d="M1822.69 77.4862V69.319L1810.61 58.0885V77.4803H1805.3V50.5762H1809.77L1822.69 62.6836V50.5762H1828V77.4862H1822.69Z" fill="white"/>
<path d="M1637.24 114.311H1629.11C1624.84 114.311 1621.72 111.669 1621.72 108.05V93.6685C1621.72 90.0497 1624.84 87.4072 1629.11 87.4072H1637.24C1641.51 87.4072 1644.63 90.0497 1644.63 93.6685V95.5685H1639.32V93.3411C1639.32 92.4116 1638.44 91.6223 1637.5 91.6223H1628.85C1627.91 91.6223 1627.03 92.4116 1627.03 93.3411V108.237C1627.03 109.167 1627.91 109.95 1628.85 109.95H1637.5C1638.44 109.95 1639.32 109.161 1639.32 108.237V102.993H1633.13V98.6787H1644.63V108.05C1644.63 111.669 1641.51 114.311 1637.24 114.311Z" fill="white"/>
<path d="M1671.97 114.311H1666.72V105.823H1654.32V114.311H1649.07V97.9362C1649.07 96.0362 1649.43 94.826 1651.04 93.4814L1658.23 87.4014H1662.81L1670 93.4814C1671.61 94.826 1671.98 96.0362 1671.98 97.9362V114.311H1671.97ZM1666.71 98.1642C1666.71 97.1879 1666.66 96.9599 1666.03 96.4045L1660.46 91.4879C1660.2 91.862 1655 96.4045 1655 96.4045C1654.37 96.9599 1654.32 97.1937 1654.32 98.1642V101.736H1666.71V98.1642Z" fill="white"/>
<path d="M1695.98 114.311V95.1008L1690.46 100.76H1687.23L1681.71 95.1008V114.311H1676.4V87.4014H1680.72L1689 95.9836C1689.21 95.4282 1696.97 87.4014 1696.97 87.4014H1701.29V114.311H1695.97H1695.98Z" fill="white"/>
<path d="M1705.72 114.311V87.4014H1725.3V91.7159H1710.93V98.6728H1722.07V103.081H1710.93V109.997H1725.3V114.311H1705.72Z" fill="white"/>
<path d="M1744.62 114.405H1736.6C1732.33 114.405 1729.21 111.762 1729.21 108.144V106.425H1734.42V108.372C1734.42 109.301 1735.31 110.09 1736.24 110.09H1744.99C1745.93 110.09 1746.82 109.301 1746.82 108.372V104.893C1746.82 102.157 1740.67 103.081 1736.82 102.993C1732.6 102.853 1729.42 100.351 1729.42 96.6851V93.6685C1729.42 90.0497 1732.55 87.4072 1736.82 87.4072H1744.21C1748.48 87.4072 1751.6 90.0497 1751.6 93.6685V95.4282H1746.4V93.4346C1746.4 92.5051 1745.51 91.7159 1744.57 91.7159H1736.45C1735.51 91.7159 1734.62 92.5051 1734.62 93.4346V96.9599C1734.62 99.6959 1740.76 98.7664 1744.62 98.8131C1748.78 98.9067 1752.01 101.456 1752.01 105.121V108.138C1752.01 111.757 1748.89 114.399 1744.62 114.399V114.405Z" fill="white"/>
<path d="M1606.19 76.738V76.7263L1575.81 43.8474C1574.28 42.4268 1573.37 42 1571.28 42H1518.35C1516.26 42 1515.35 42.4268 1513.82 43.8474L1478.91 81.263C1478.25 81.8768 1477.95 82.5901 1478.01 83.2975C1478.07 84.0048 1478.48 84.6479 1479.19 85.1156L1484.96 88.5883C1486.53 89.623 1488.1 88.8163 1489.46 87.5067L1521.32 54.6336C1522.85 53.2071 1523.77 52.7804 1525.87 52.7804H1563.75C1565.86 52.7804 1566.78 53.2071 1568.31 54.6336C1568.31 54.6336 1581.15 68.1909 1581.16 68.2085L1581.25 68.2961C1581.45 68.5534 1581.57 68.8691 1581.57 69.214C1581.57 70.0208 1580.91 70.6814 1580.1 70.6989H1580.07L1522.02 70.6522V70.6638H1516.53C1514.44 70.6638 1513.53 71.0906 1512 72.5112L1494.59 90.88C1493.97 91.447 1493.67 92.1252 1493.74 92.7858C1493.82 93.4464 1494.25 94.0427 1494.97 94.4695L1541.89 122.134C1542.66 122.672 1543.6 122.987 1544.61 122.987C1545.69 122.987 1546.68 122.631 1547.48 122.034H1547.54L1599.18 91.8387C1599.96 91.4353 1600.49 90.6344 1600.49 89.7049C1600.49 88.3836 1599.41 87.3138 1598.08 87.2962V87.2846H1557.8H1555.89C1553.8 87.2846 1552.89 87.7113 1551.36 89.132L1547.17 94.1947C1546.98 94.4871 1546.92 94.8203 1546.92 95.1944C1546.92 96.2234 1547.77 97.0594 1548.81 97.0594L1561.15 97.0769C1562.74 97.0769 1563.66 97.5037 1563.91 98.3455C1564.15 99.1874 1563.59 100.035 1562.24 100.859L1547.63 109.465H1547.57C1546.76 110.096 1545.74 110.476 1544.63 110.476C1543.69 110.476 1542.81 110.202 1542.08 109.74H1542.05L1513.4 92.7858L1513.39 92.739C1512.49 92.3064 1511.88 91.4003 1511.88 90.348C1511.88 89.5412 1512.24 88.8221 1512.81 88.331L1517.48 83.2565C1519.02 81.8301 1520.17 81.4033 1522.27 81.4033H1603.6C1603.6 81.4033 1603.84 81.3858 1603.95 81.3858C1605.54 81.3858 1606.84 80.0996 1606.84 78.5328C1606.84 77.8547 1606.59 77.2291 1606.19 76.738Z" fill="white"/>
</g>
<defs>
<clipPath id="clip0_40_706">
<rect width="1920" height="158" fill="white"/>
</clipPath>
</defs>
</svg>
