<svg width="418" height="109" viewBox="0 0 418 109" fill="none" xmlns="http://www.w3.org/2000/svg">
<g clip-path="url(#clip0_6_233)">
<path d="M118 0H0V109H118V0Z" fill="white"/>
<path d="M124 109V0H402L418 23.213V109H124Z" fill="white"/>
<path d="M45.5 53.5L12.5 9H37.5L69.5 53.5L35.5 99.5H11L45.5 53.5Z" fill="#FE2C3B"/>
<path d="M82.5 53.5L49.5 9H74.5L106.5 53.5L72.5 99.5H48L82.5 53.5Z" fill="#FE2C3B"/>
<path d="M157.954 21.5455H177.545L194.165 62.071H194.932L211.551 21.5455H231.143V87H215.738V46.794H215.195L199.47 86.5845H189.626L173.902 46.5703H173.359V87H157.954V21.5455ZM256.831 21.5455V87H241.01V21.5455H256.831ZM322.469 21.5455V87H309.046L282.998 49.223H282.583V87H266.762V21.5455H280.377L306.137 59.2585H306.681V21.5455H322.469ZM330.275 34.3935V21.5455H385.599V34.3935H365.751V87H350.155V34.3935H330.275Z" fill="black"/>
</g>
<defs>
<clipPath id="clip0_6_233">
<rect width="418" height="109" fill="white"/>
</clipPath>
</defs>
</svg>
