<svg width="418" height="148" viewBox="0 0 418 148" fill="none" xmlns="http://www.w3.org/2000/svg">
<g clip-path="url(#clip0_27_21)">
<path d="M5.70483 0.54541V26H3.38062V0.54541H5.70483ZM32.2966 0.54541V26H30.0345L14.9955 4.68426H14.7966V26H12.4724V0.54541H14.722L29.8108 21.886H30.0097V0.54541H32.2966ZM41.3884 0.54541V26H39.0642V0.54541H41.3884ZM46.6148 2.63348V0.54541H65.0718V2.63348H57.0054V26H54.6812V2.63348H46.6148ZM67.3681 26H64.932L74.1916 0.54541H76.6774L85.937 26H83.5009L75.5215 3.56566H75.3475L67.3681 26ZM69.1206 16.2433H81.7484V18.3313H69.1206V16.2433ZM85.7847 2.63348V0.54541H104.242V2.63348H96.1753V26H93.8511V2.63348H85.7847ZM109.474 26V0.54541H124.24V2.63348H111.799V12.2163H123.457V14.3043H111.799V23.9119H124.489V26H109.474Z" fill="white"/>
<path d="M118 39H0V148H118V39Z" fill="white"/>
<path d="M45.5 93.5L12.5 49H37.5L69.5 93.5L35.5 139.5H11L45.5 93.5Z" fill="#FE2C3B"/>
<path d="M82.5 93.5L49.5 49H74.5L106.5 93.5L72.5 139.5H48L82.5 93.5Z" fill="#FE2C3B"/>
<path d="M124 148V39H402L418 62.213V148H124Z" fill="white"/>
<path d="M157.954 60.5454H177.545L194.165 101.071H194.932L211.551 60.5454H231.143V126H215.738V85.7939H215.195L199.47 125.585H189.626L173.902 85.5702H173.359V126H157.954V60.5454ZM256.831 60.5454V126H241.01V60.5454H256.831ZM322.469 60.5454V126H309.046L282.998 88.2229H282.583V126H266.762V60.5454H280.377L306.137 98.2584H306.681V60.5454H322.469ZM330.275 73.3934V60.5454H385.599V73.3934H365.751V126H350.155V73.3934H330.275Z" fill="black"/>
</g>
<defs>
<clipPath id="clip0_27_21">
<rect width="418" height="148" fill="white"/>
</clipPath>
</defs>
</svg>
