<svg width="130" height="97" viewBox="0 0 130 97" fill="none" xmlns="http://www.w3.org/2000/svg">
<g clip-path="url(#clip0_2_450)">
<path d="M60.5212 34.5786L66.4908 28.609H82.8533V35.9701H78.5231V32.9392H68.2537L64.8514 36.3415V45.9298H78.5231V42.899H82.8533V50.2611H60.5212V34.5786Z" fill="white"/>
<path d="M83.9999 34.5786L89.9695 28.609H106.332V34.2386H102.002V32.9392H91.7323L88.3301 36.3415V37.2694H106.332V44.2904L100.362 50.26H83.9999V44.6304H88.3301V45.9298H98.5681L102.002 42.5276V41.5996H83.9999V34.5776V34.5786Z" fill="white"/>
<path d="M125.67 37.2705V28.6101H130V50.2621H125.67V41.6017H111.998V50.2621H107.668V28.6101H111.998V37.2705H125.67Z" fill="white"/>
<mask id="mask0_2_450" style="mask-type:luminance" maskUnits="userSpaceOnUse" x="36" y="27" width="33" height="33">
<path d="M46.8119 27.657L36.9003 59.5586H60.4574L68.4765 27L46.8119 27.657Z" fill="white"/>
</mask>
<g mask="url(#mask0_2_450)">
<path d="M59.2511 46.7354L55.7244 50.2611H36.918V34.5786L42.8876 28.609H55.7244L59.2511 32.1347V38.0739L57.89 39.435L59.2511 40.7961V46.7354ZM54.9209 36.2808V33.93L53.9312 32.9403H44.6515L41.2493 36.3425V37.2705H53.9312L54.9209 36.2808ZM54.9209 44.9412V42.5904L53.9312 41.6007H41.2493V45.9309H53.9312L54.9209 44.9412Z" fill="white"/>
</g>
<path d="M88.7245 28.609L83.9999 33.3347V28.609H88.7245Z" fill="white"/>
<path d="M65.2469 28.609L60.5212 33.3347V28.609H65.2469Z" fill="white"/>
<path d="M62.0999 52.9749C62.0131 53.0638 61.9074 53.1276 61.7819 53.1674C61.8875 53.1893 61.9723 53.2417 62.0371 53.3253C62.102 53.409 62.1344 53.5074 62.1344 53.6214C62.1344 53.6518 62.1313 53.6863 62.125 53.7239C62.0947 53.9112 62.0005 54.0608 61.8436 54.1759C61.6867 54.291 61.49 54.3475 61.2556 54.3475H60.2639L60.6729 52.0479H61.6218C61.8311 52.0479 61.9911 52.0919 62.1041 52.1798C62.2171 52.2676 62.2736 52.3848 62.2736 52.5323C62.2736 52.5679 62.2705 52.6035 62.2642 52.6411C62.2422 52.775 62.1878 52.887 62.101 52.9759L62.0999 52.9749ZM61.6731 53.6026C61.6731 53.5231 61.6448 53.4614 61.5894 53.4164C61.5329 53.3714 61.4555 53.3484 61.3571 53.3484H60.902L60.7932 53.9813H61.2577C61.3697 53.9813 61.4617 53.9541 61.535 53.8987C61.6072 53.8443 61.6511 53.7668 61.6668 53.6685C61.671 53.6382 61.6731 53.6162 61.6731 53.6026ZM61.7861 52.6506C61.7861 52.5731 61.761 52.5145 61.7107 52.4727C61.6605 52.4308 61.5862 52.4099 61.49 52.4099H61.0715L60.9658 53.0031H61.3875C61.4952 53.0031 61.5841 52.977 61.6542 52.9257C61.7243 52.8744 61.7672 52.8023 61.7829 52.7102C61.785 52.6966 61.7861 52.6778 61.7861 52.6506Z" fill="white"/>
<path d="M62.9097 53.9949H63.6671L63.6043 54.3475H62.3813L62.7904 52.0479H63.2518L62.9086 53.9949H62.9097Z" fill="white"/>
<path d="M64.4591 54.247C64.3105 54.1644 64.1955 54.0504 64.1149 53.9039C64.0333 53.7574 63.9925 53.59 63.9925 53.4017C63.9925 53.1381 64.0511 52.9006 64.1683 52.6903C64.2854 52.48 64.4486 52.3137 64.6558 52.1944C64.8629 52.0751 65.0962 52.0145 65.3557 52.0145C65.5513 52.0145 65.7229 52.0553 65.8715 52.1369C66.02 52.2185 66.1341 52.3315 66.2157 52.4779C66.2973 52.6244 66.3381 52.7907 66.3381 52.977C66.3381 53.2448 66.2795 53.4844 66.1633 53.6957C66.0472 53.907 65.884 54.0723 65.6758 54.1916C65.4666 54.3109 65.2322 54.3715 64.9707 54.3715C64.7771 54.3715 64.6066 54.3307 64.4581 54.2481L64.4591 54.247ZM65.4739 53.8202C65.6005 53.7365 65.6978 53.6246 65.7668 53.4823C65.8359 53.341 65.8704 53.1862 65.8704 53.0199C65.8704 52.8399 65.8202 52.6976 65.7187 52.5951C65.6172 52.4915 65.476 52.4403 65.294 52.4403C65.1318 52.4403 64.9874 52.4821 64.8608 52.5658C64.7342 52.6495 64.6369 52.7615 64.5679 52.9016C64.4989 53.0418 64.4643 53.1956 64.4643 53.363C64.4643 53.543 64.5145 53.6852 64.6139 53.7899C64.7144 53.8945 64.8546 53.9468 65.0376 53.9468C65.2029 53.9468 65.3484 53.9049 65.4739 53.8212V53.8202Z" fill="white"/>
<path d="M66.835 52.5857C66.9679 52.4068 67.1311 52.2676 67.3257 52.1672C67.5203 52.0668 67.7274 52.0176 67.9471 52.0176C68.2045 52.0176 68.4179 52.0835 68.5895 52.2153C68.761 52.3472 68.8636 52.5292 68.8991 52.7625H68.3687C68.3332 52.6568 68.2735 52.5773 68.1877 52.524C68.102 52.4706 67.9963 52.4434 67.8718 52.4434C67.7379 52.4434 67.6134 52.4738 67.4972 52.5355C67.3811 52.5972 67.2849 52.6851 67.2075 52.7991C67.129 52.9131 67.0777 53.045 67.0505 53.1946C67.039 53.2647 67.0338 53.3233 67.0338 53.3693C67.0338 53.5471 67.0851 53.6873 67.1865 53.7909C67.2891 53.8945 67.4272 53.9457 67.6029 53.9457C67.7285 53.9457 67.8435 53.9185 67.9492 53.8631C68.0549 53.8076 68.1438 53.7281 68.216 53.6225H68.7464C68.6282 53.8579 68.4597 54.0409 68.2442 54.1707C68.0277 54.3014 67.7912 54.3663 67.5339 54.3663C67.3403 54.3663 67.1698 54.3276 67.0212 54.2491C66.8727 54.1707 66.7586 54.0608 66.677 53.9175C66.5954 53.7742 66.5546 53.611 66.5546 53.4268C66.5546 53.3505 66.5609 53.272 66.5745 53.1925C66.6143 52.9665 66.7001 52.7635 66.8329 52.5846L66.835 52.5857Z" fill="white"/>
<path d="M70.1252 53.1872L70.8963 54.3475H70.3094L69.6565 53.3222L69.4756 54.3475H69.011L69.4201 52.0479H69.8815L69.7005 53.0795L70.7184 52.0479H71.275L70.1252 53.1883V53.1872Z" fill="white"/>
<path d="M71.5502 52.5857C71.683 52.4068 71.8462 52.2676 72.0408 52.1672C72.2354 52.0668 72.4426 52.0176 72.6623 52.0176C72.9196 52.0176 73.133 52.0835 73.3046 52.2153C73.4762 52.3472 73.5787 52.5292 73.6143 52.7625H73.0839C73.0483 52.6568 72.9887 52.5773 72.9029 52.524C72.8171 52.4706 72.7114 52.4434 72.5869 52.4434C72.453 52.4434 72.3285 52.4738 72.2124 52.5355C72.0963 52.5972 72 52.6851 71.9226 52.7991C71.8441 52.9131 71.7929 53.045 71.7657 53.1946C71.7542 53.2647 71.7489 53.3233 71.7489 53.3693C71.7489 53.5471 71.8002 53.6873 71.9017 53.7909C72.0042 53.8945 72.1423 53.9457 72.3181 53.9457C72.4436 53.9457 72.5587 53.9185 72.6644 53.8631C72.77 53.8076 72.8589 53.7281 72.9311 53.6225H73.4616C73.3433 53.8579 73.1749 54.0409 72.9594 54.1707C72.7428 54.3014 72.5064 54.3663 72.249 54.3663C72.0555 54.3663 71.8849 54.3276 71.7364 54.2491C71.5878 54.1707 71.4738 54.0608 71.3922 53.9175C71.3106 53.7742 71.2698 53.611 71.2698 53.4268C71.2698 53.3505 71.2761 53.272 71.2897 53.1925C71.3294 52.9665 71.4152 52.7635 71.5481 52.5846L71.5502 52.5857Z" fill="white"/>
<path d="M76.0436 52.0479L75.6387 54.3475H75.1742L75.3489 53.362H74.3665L74.1918 54.3475H73.7273L74.1364 52.0479H74.5977L74.4293 53H75.4148L75.5832 52.0479H76.0446H76.0436Z" fill="white"/>
<path d="M77.5794 53.9091H76.6598L76.4328 54.3475H75.9484L77.1839 52.0438H77.7206L78.1391 54.3475H77.6516L77.5794 53.9091ZM77.5197 53.5503L77.3544 52.5752L76.847 53.5503H77.5197Z" fill="white"/>
<path d="M79.3192 52.0479L78.9143 54.3475H78.4498L78.8589 52.0479H79.3203H79.3192Z" fill="white"/>
<path d="M81.3352 54.3475H80.8707L80.1091 52.7688L79.8287 54.3475H79.3642L79.7733 52.0438H80.2346L80.9994 53.6256L81.2798 52.0438H81.7412L81.3363 54.3475H81.3352Z" fill="white"/>
<path d="M82.9746 54.2136C82.8261 54.109 82.7518 53.9625 82.7518 53.7731C82.7518 53.7533 82.7539 53.724 82.758 53.6842H83.2288C83.2205 53.7763 83.2445 53.8526 83.3031 53.9112C83.3617 53.9709 83.4464 54.0002 83.5584 54.0002C83.6703 54.0002 83.7593 53.9761 83.8241 53.929C83.889 53.8819 83.9214 53.8139 83.9214 53.726C83.9214 53.6444 83.8879 53.5796 83.821 53.5315C83.754 53.4833 83.6494 53.4289 83.5061 53.3703C83.3743 53.3159 83.2675 53.2647 83.1849 53.2186C83.1022 53.1726 83.0321 53.1088 82.9736 53.0262C82.915 52.9435 82.8867 52.8399 82.8867 52.7144C82.8867 52.5711 82.9233 52.4476 82.9966 52.3419C83.0698 52.2363 83.1713 52.1557 83.3 52.0982C83.4287 52.0406 83.5751 52.0124 83.7394 52.0124C83.9036 52.0124 84.0428 52.0396 84.1631 52.0929C84.2824 52.1463 84.3723 52.2227 84.433 52.3221C84.4937 52.4204 84.5188 52.5365 84.5104 52.6683H84.0198L84.0229 52.6317C84.0229 52.5595 83.9957 52.4999 83.9423 52.4539C83.889 52.4078 83.8137 52.3848 83.7164 52.3848C83.6128 52.3848 83.5291 52.4089 83.4663 52.457C83.4025 52.5051 83.3711 52.5711 83.3711 52.6547C83.3711 52.7102 83.3889 52.7573 83.4255 52.7981C83.4621 52.8389 83.5061 52.8734 83.5594 52.9037C83.6117 52.933 83.6881 52.9717 83.7865 53.0178C83.9162 53.0753 84.0229 53.1287 84.1055 53.1789C84.1892 53.2291 84.2604 53.2961 84.32 53.3798C84.3796 53.4635 84.4089 53.5649 84.4089 53.6863C84.4089 53.8181 84.3734 53.9353 84.3022 54.0389C84.2311 54.1424 84.1296 54.223 83.9988 54.2816C83.8681 54.3402 83.7164 54.3684 83.5427 54.3684C83.3125 54.3684 83.1221 54.3161 82.9746 54.2115V54.2136Z" fill="white"/>
<path d="M85.543 52.0479L85.293 53.4676C85.2846 53.5294 85.2794 53.5722 85.2794 53.5963C85.2794 53.7103 85.3139 53.7982 85.3819 53.8579C85.4499 53.9185 85.5472 53.9489 85.6717 53.9489C85.8213 53.9489 85.9437 53.9081 86.0389 53.8254C86.1341 53.7428 86.1969 53.6235 86.2251 53.4676L86.4752 52.0479H86.9397L86.6896 53.4676C86.6541 53.6654 86.5829 53.8317 86.4752 53.9667C86.3674 54.1016 86.2377 54.2031 86.0849 54.2701C85.9322 54.337 85.7679 54.3705 85.5922 54.3705C85.3589 54.3705 85.1706 54.3098 85.0272 54.1895C84.8828 54.0681 84.8117 53.8955 84.8117 53.6685C84.8117 53.6068 84.818 53.5398 84.8316 53.4676L85.0816 52.0479H85.543Z" fill="white"/>
<path d="M88.7852 53.1056C88.7078 53.2134 88.6021 53.3002 88.4671 53.3662C88.3322 53.4321 88.17 53.4645 87.9807 53.4645H87.5957L87.4408 54.3475H86.9763L87.3854 52.0479H88.2318C88.4671 52.0479 88.645 52.1003 88.7653 52.2049C88.8867 52.3095 88.9463 52.4486 88.9463 52.6213C88.9463 52.6715 88.9421 52.7175 88.9327 52.7594C88.9107 52.8828 88.8616 52.9979 88.7841 53.1056H88.7852ZM88.3249 53.0094C88.3971 52.9477 88.4431 52.864 88.463 52.7594C88.4671 52.7395 88.4692 52.7112 88.4692 52.6736C88.4692 52.4999 88.3615 52.4131 88.146 52.4131H87.784L87.6616 53.1015H88.0277C88.1533 53.1015 88.2516 53.0711 88.3238 53.0094H88.3249Z" fill="white"/>
<path d="M89.7874 52.4068L89.6818 53.0031H90.4559L90.3932 53.3588H89.619L89.5102 53.9813H90.3838L90.3178 54.3475H88.9798L89.3888 52.0438H90.7238L90.661 52.4057H89.7874V52.4068Z" fill="white"/>
<path d="M92.5389 52.207C92.6592 52.3137 92.7199 52.4528 92.7199 52.6234C92.7199 52.6652 92.7168 52.7081 92.7105 52.752C92.6843 52.9016 92.6163 53.0366 92.5075 53.159C92.3987 53.2814 92.2533 53.3662 92.0713 53.4143L92.4563 54.3464H91.9196L91.5764 53.4499H91.3557L91.1977 54.3464H90.7332L91.1422 52.0469H92.0054C92.2407 52.0469 92.4186 52.1003 92.5389 52.207ZM92.2418 52.683C92.2418 52.5993 92.2156 52.5344 92.1623 52.4884C92.11 52.4424 92.0294 52.4194 91.9217 52.4194H91.5367L91.4143 53.1077H91.7993C91.9227 53.1077 92.0211 53.0774 92.0943 53.0157C92.1675 52.954 92.2146 52.8692 92.2345 52.7615C92.2387 52.7217 92.2407 52.6955 92.2407 52.6819L92.2418 52.683Z" fill="white"/>
<path d="M95.1617 52.0479L94.7569 54.3475H94.2923L94.4671 53.362H93.4847L93.31 54.3475H92.8455L93.2545 52.0479H93.7159L93.5475 53H94.533L94.7014 52.0479H95.1628H95.1617Z" fill="white"/>
<path d="M96.0154 52.4068L95.9098 53.0031H96.6839L96.6212 53.3588H95.847L95.7382 53.9813H96.6118L96.5458 54.3475H95.2078L95.6168 52.0438H96.9518L96.889 52.4057H96.0154V52.4068Z" fill="white"/>
<path d="M98.7669 52.207C98.8872 52.3137 98.9479 52.4528 98.9479 52.6234C98.9479 52.6652 98.9448 52.7081 98.9385 52.752C98.9123 52.9016 98.8443 53.0366 98.7355 53.159C98.6267 53.2814 98.4813 53.3662 98.2993 53.4143L98.6843 54.3464H98.1476L97.8044 53.4499H97.5837L97.4257 54.3464H96.9612L97.3702 52.0469H98.2334C98.4688 52.0469 98.6466 52.1003 98.7669 52.207ZM98.4698 52.683C98.4698 52.5993 98.4436 52.5344 98.3903 52.4884C98.338 52.4424 98.2574 52.4194 98.1497 52.4194H97.7647L97.6423 53.1077H98.0273C98.1507 53.1077 98.249 53.0774 98.3223 53.0157C98.3955 52.954 98.4426 52.8692 98.4625 52.7615C98.4667 52.7217 98.4688 52.6955 98.4688 52.6819L98.4698 52.683Z" fill="white"/>
<path d="M99.6384 54.247C99.4898 54.1644 99.3747 54.0504 99.2942 53.9039C99.2126 53.7574 99.1718 53.59 99.1718 53.4017C99.1718 53.1381 99.2304 52.9006 99.3475 52.6903C99.4647 52.48 99.6279 52.3137 99.8351 52.1944C100.042 52.0751 100.276 52.0145 100.535 52.0145C100.731 52.0145 100.902 52.0553 101.051 52.1369C101.199 52.2185 101.313 52.3315 101.395 52.4779C101.477 52.6244 101.517 52.7907 101.517 52.977C101.517 53.2448 101.459 53.4844 101.343 53.6957C101.227 53.907 101.063 54.0723 100.855 54.1916C100.646 54.3109 100.412 54.3715 100.15 54.3715C99.9564 54.3715 99.7859 54.3307 99.6373 54.2481L99.6384 54.247ZM100.653 53.8202C100.78 53.7365 100.877 53.6246 100.946 53.4823C101.015 53.341 101.05 53.1862 101.05 53.0199C101.05 52.8399 100.999 52.6976 100.898 52.5951C100.797 52.4915 100.655 52.4403 100.473 52.4403C100.311 52.4403 100.167 52.4821 100.04 52.5658C99.9135 52.6495 99.8162 52.7615 99.7472 52.9016C99.6781 53.0418 99.6436 53.1956 99.6436 53.363C99.6436 53.543 99.6938 53.6852 99.7932 53.7899C99.8937 53.8945 100.034 53.9468 100.217 53.9468C100.382 53.9468 100.528 53.9049 100.653 53.8212V53.8202Z" fill="white"/>
<path d="M102.467 52.4068L102.362 53.0031H103.136L103.073 53.3588H102.299L102.19 53.9813H103.064L102.998 54.3475H101.66L102.069 52.0438H103.404L103.341 52.4057H102.467V52.4068Z" fill="white"/>
<path d="M103.717 54.2136C103.569 54.109 103.495 53.9625 103.495 53.7731C103.495 53.7533 103.497 53.724 103.501 53.6842H103.972C103.963 53.7763 103.987 53.8526 104.046 53.9112C104.105 53.9709 104.189 54.0002 104.301 54.0002C104.413 54.0002 104.502 53.9761 104.567 53.929C104.632 53.8819 104.664 53.8139 104.664 53.726C104.664 53.6444 104.631 53.5796 104.564 53.5315C104.497 53.4833 104.392 53.4289 104.249 53.3703C104.117 53.3159 104.01 53.2647 103.928 53.2186C103.845 53.1726 103.775 53.1088 103.716 53.0262C103.658 52.9435 103.63 52.8399 103.63 52.7144C103.63 52.5711 103.666 52.4476 103.739 52.3419C103.813 52.2363 103.914 52.1557 104.043 52.0982C104.172 52.0406 104.318 52.0124 104.482 52.0124C104.647 52.0124 104.786 52.0396 104.906 52.0929C105.025 52.1463 105.115 52.2227 105.176 52.3221C105.237 52.4204 105.262 52.5365 105.253 52.6683H104.763L104.766 52.6317C104.766 52.5595 104.739 52.4999 104.685 52.4539C104.632 52.4078 104.557 52.3848 104.459 52.3848C104.356 52.3848 104.272 52.4089 104.209 52.457C104.145 52.5051 104.114 52.5711 104.114 52.6547C104.114 52.7102 104.132 52.7573 104.168 52.7981C104.205 52.8389 104.249 52.8734 104.302 52.9037C104.355 52.933 104.431 52.9717 104.529 53.0178C104.659 53.0753 104.766 53.1287 104.848 53.1789C104.932 53.2291 105.003 53.2961 105.063 53.3798C105.123 53.4635 105.152 53.5649 105.152 53.6863C105.152 53.8181 105.116 53.9353 105.045 54.0389C104.974 54.1424 104.872 54.223 104.742 54.2816C104.611 54.3402 104.459 54.3684 104.286 54.3684C104.055 54.3684 103.865 54.3161 103.717 54.2115V54.2136Z" fill="white"/>
<path d="M106.563 52.0239L106.517 52.2938H106.25L106.096 53.1831H105.746L105.907 52.2938H105.644L105.69 52.0239H106.563ZM108.214 52.0239L108.01 53.1841H107.691L107.809 52.4591L107.384 53.1841H107.147L106.983 52.433L106.851 53.1841H106.541L106.745 52.0239H107.203L107.352 52.7751L107.787 52.0239H108.215H108.214Z" fill="white"/>
<path d="M28.9722 27.6237C29.0099 27.6477 28.333 26.8014 29.217 26.4331C30.1011 26.0659 30.0833 25.9257 30.0833 25.9257L30.5122 25.1996C30.5122 25.1996 29.9431 25.7949 29.5403 25.9874C29.1375 26.1799 27.8423 26.8892 28.9712 27.6237H28.9722Z" fill="white"/>
<path d="M30.5133 25.1986C30.5133 25.1986 30.2946 25.978 29.962 26.7302C29.6293 27.4824 29.5508 27.6488 28.9995 28.0694C28.9995 28.0694 29.6994 27.0985 29.8751 26.4111C30.0509 25.7238 30.0938 25.706 30.0938 25.706L30.5143 25.1986H30.5133Z" fill="white"/>
<path d="M29.0946 26.4112C29.0946 26.4112 28.8938 27.0985 29.6198 27.2376L29.9609 26.4112L30.1356 25.7583L29.0936 26.4112H29.0946Z" fill="white"/>
<path d="M29.3384 27.7618C28.7264 27.4678 28.7609 26.7857 28.8645 26.4666L29.0632 26.5315C29.0538 26.5618 28.8299 27.2858 29.4294 27.5735L29.3384 27.7618Z" fill="white"/>
<path d="M28.4209 26.7658C28.4209 26.7658 28.0966 25.8556 30.2412 24.7969C30.2412 24.7969 27.2041 25.7154 28.4209 26.7658Z" fill="white"/>
<path d="M28.7452 30.3542C28.7452 30.3542 28.7818 30.236 28.9597 30.1314C29.1375 30.0268 28.3832 30.0864 28.7452 30.3542Z" fill="white"/>
<path d="M28.6458 31.5909L28.9879 31.3691C28.9879 31.3691 29.3175 31.1944 30.1638 31.5909C30.1638 31.5909 29.376 31.0416 28.8686 31.3304C28.3612 31.6202 28.4313 31.5909 28.4313 31.5909H28.6468H28.6458Z" fill="white"/>
<path d="M28.9084 31.7603C28.9084 31.7603 29.1595 31.7666 29.2411 31.6903L29.1888 31.6264C29.1888 31.6264 29.5099 31.6735 29.8186 31.6934L30.1282 31.7133C30.1282 31.7133 29.8772 31.7603 29.4336 31.7896C29.4336 31.7896 29.194 31.8127 29.0716 32.0345C28.9492 32.2562 28.7682 31.8597 28.7682 31.8597L28.9084 31.7603Z" fill="white"/>
<path d="M49.2245 20.1999C49.3741 20.4091 49.5237 20.6194 49.6858 20.8485C49.4944 20.9291 49.3238 21.0013 49.1429 21.0776C48.806 20.7659 49.1962 20.4939 49.1523 20.2051C49.1763 20.203 49.2004 20.202 49.2245 20.1999Z" fill="white"/>
<path d="M49.7842 25.0741C49.6523 24.891 49.5289 24.7006 49.3835 24.5301C49.3385 24.4767 49.2328 24.4558 49.1533 24.4527C48.8959 24.4433 48.6375 24.4495 48.3739 24.4077C48.7422 24.2801 49.0581 23.9128 49.4965 24.142C49.8574 24.3313 49.872 24.6849 49.8668 25.0333C49.8396 25.0469 49.8124 25.0605 49.7852 25.0741H49.7842Z" fill="white"/>
<path d="M48.853 26.6371C48.5507 26.2396 48.2818 26.4917 48.0025 26.522C47.7943 26.5451 47.5735 26.4478 47.3591 26.4038C47.3633 26.3693 47.3664 26.3348 47.3706 26.3013C47.7022 26.2155 48.0318 26.114 48.3676 26.0492C48.6333 25.9979 48.8394 26.2145 48.853 26.6382V26.6371Z" fill="white"/>
<path d="M47.4061 26.7784C47.946 26.9981 48.3948 27.4688 49.011 27.1173C48.3393 27.6551 47.8466 27.5337 47.4061 26.7784Z" fill="white"/>
<path d="M48.1207 28.921C48.6469 29.1218 49.1627 29.3196 49.7036 29.5267C49.3584 30.6346 49.0215 31.7164 48.6658 32.8609C48.6271 32.7626 48.6082 32.7239 48.5967 32.6831C48.3833 31.9005 48.2128 31.1023 47.945 30.3386C47.7598 29.8123 47.9219 29.3897 48.1218 28.921H48.1207ZM48.9807 31.255C48.8541 30.8805 48.7453 30.5321 48.6114 30.1931C48.5905 30.1398 48.4314 30.0864 48.3791 30.1136C48.308 30.1513 48.2232 30.281 48.24 30.3459C48.3258 30.6807 48.4325 31.0113 48.558 31.3335C48.5821 31.3952 48.7286 31.4465 48.8091 31.436C48.874 31.4276 48.9252 31.3167 48.9807 31.254V31.255Z" fill="white"/>
<mask id="mask1_2_450" style="mask-type:luminance" maskUnits="userSpaceOnUse" x="-1" y="-1" width="107" height="89">
<path d="M71.8139 40.6823H46.3819L39.0774 62.9181L34.4511 73.56L43.326 41.3916L42.7391 39.3986L32.5387 73.6164L25.1672 73.833L18.0657 85.0053L12.3995 87.5256C12.3995 87.5256 0.141228 63.1043 0.00103835 62.3615C-0.139152 61.6187 12.4654 11.2026 14.7053 9.38227C16.2285 8.14567 35.4042 3.15742 48.3739 8.84623e-06C48.6009 -0.0554394 51.5187 10.2726 52.6852 10.2129L53.4866 10.4902C54.513 11.6211 53.7597 11.4809 53.4626 14.3695C53.358 15.3874 58.3619 20.9354 58.5387 20.9166C61.1992 20.6362 87.3875 16.6449 92.5693 19.8662C97.7511 23.0874 106.153 17.6451 105.313 18.7656C104.473 19.8861 71.8139 40.6823 71.8139 40.6823Z" fill="white"/>
</mask>
<g mask="url(#mask1_2_450)">
<path d="M30.5771 58.9614L29.148 60.4271L34.8717 65.1883C34.8717 65.1883 37.2947 56.3794 37.6106 55.3227C39.273 49.7559 40.2188 46.5901 41.8812 41.0233C42.1019 40.2837 42.3154 39.543 42.5518 38.7343C42.7433 39.4059 42.9075 40.0117 43.0906 40.6122C43.1628 40.8486 43.1534 41.0641 43.0833 41.3006C38.9152 55.3028 34.7493 69.3061 30.5917 83.3105C30.4296 83.8577 30.3469 84.4278 30.2266 84.9875C30.2444 84.9917 30.2622 84.9959 30.28 84.999C34.6028 70.4601 38.9247 55.9222 43.2475 41.3832L43.327 41.3906C43.3835 42.0099 43.4808 42.6366 43.2967 43.2496C41.8948 47.9094 40.4783 52.5649 39.0816 57.2257C38.9791 57.5678 38.955 57.9508 38.9791 58.3096C39.0711 59.6937 39.2008 61.0757 39.3065 62.4599C39.3212 62.6513 39.3097 62.8574 39.2553 63.0405C38.2969 66.2481 37.3261 69.4526 36.3646 72.6592C37.3752 69.2905 35.2222 76.4684 29.9169 94.1794C29.6805 94.9703 29.444 95.7612 29.2097 96.548C29.4713 96.6495 29.5424 96.5145 29.601 96.3157C30.4139 93.5757 31.2289 90.8368 32.0522 88.1C32.1014 87.9368 32.2342 87.8008 32.3002 87.6407C32.3839 87.4377 32.5125 87.2149 32.4895 87.0151C32.4477 86.6426 32.569 86.335 32.7134 86.0201C32.9634 85.4719 33.248 84.9363 33.4572 84.3724C34.0755 82.7016 34.6687 81.0214 35.2598 79.3402C35.5549 78.5011 36.1219 77.8316 36.6272 77.0982C36.7779 77.6443 36.8929 78.1862 36.9934 78.7313C37.5803 81.9285 38.4989 85.1811 39.8683 88.3751C39.8715 88.3835 39.8715 88.3939 39.8746 88.4023C40.1424 89.0258 40.4019 89.6536 40.6812 90.2719C41.356 91.7669 42.057 93.2504 42.714 94.7527C42.9692 95.3365 43.1366 95.959 43.3459 96.5668H43.96C42.7956 93.9178 41.6448 91.2982 40.4814 88.6513C40.5912 88.6513 40.6467 88.6482 40.7021 88.6513C43.3626 88.8344 46.0084 88.6691 48.6427 88.2966C49.5958 88.1617 50.5583 87.9953 51.163 87.0119C51.298 90.2467 51.411 93.4136 51.7123 96.5584H52.0795C52.0837 96.5124 52.09 96.4852 52.0889 96.458C51.9226 93.5548 51.7688 90.6495 51.5846 87.7474C51.48 86.0902 51.3116 84.4362 51.1976 82.779C51.0448 80.5726 50.7738 78.3861 50.3041 76.2204C49.3322 71.7354 47.2482 67.8875 43.8867 64.7447C43.3971 64.2865 42.919 63.8157 42.4451 63.3418C42.374 63.2717 42.3018 63.1451 42.3154 63.0583C42.3687 62.7204 42.262 62.4337 42.1239 62.1355C42.0214 61.9148 41.9931 61.6595 41.9513 61.4942C42.3834 61.2473 42.7642 61.0611 43.1094 60.8246C43.4045 60.6227 43.531 60.2974 43.4306 59.949C43.326 59.586 43.3176 59.2334 43.3542 58.862C43.3929 58.4686 43.4118 58.4121 43.8031 58.3159C44.4904 58.1474 45.1861 58.0083 45.863 57.8053C46.3338 57.6641 46.4112 57.571 46.3924 57.14C46.3861 56.9987 46.3934 56.8554 46.3736 56.7162C46.2574 55.9316 46.1423 55.147 46.0084 54.3655C45.9708 54.1468 45.9854 53.9752 46.1319 53.7932C46.7669 53.0064 47.2021 52.1214 47.4804 51.1432C48.0171 49.2579 48.5967 47.3842 49.1596 45.5063C49.1805 45.4383 49.2077 45.3713 49.2318 45.3044C49.2474 45.3096 49.2631 45.3138 49.2778 45.319C49.0037 46.4876 48.7306 47.6562 48.4618 48.8049C49.0853 48.8049 49.6785 48.7997 50.2706 48.8049C52.3295 48.8279 54.3895 48.8447 56.4473 48.8886C57.1839 48.9043 57.8608 48.7474 58.522 48.4325C60.0358 47.7127 61.3592 46.7805 62.2077 45.2845C62.4483 44.8597 62.6272 44.4203 62.6262 43.9223C62.6262 43.4223 62.6345 42.9211 62.6408 42.4211C62.6408 42.3572 62.6523 42.2945 62.6576 42.2307C62.6743 42.2307 62.69 42.2296 62.7067 42.2286C62.7841 42.5926 62.8605 42.9557 62.9536 43.3919C63.2173 42.6041 63.4987 41.8906 63.3219 41.1185C63.1932 40.5536 62.9442 40.0159 62.7904 39.4572C62.486 38.3556 62.1114 37.2759 61.6804 36.2171C61.4869 35.7432 61.4074 35.2881 61.4911 34.8121C61.604 34.1624 61.7432 33.5169 61.8771 32.8714C61.9566 32.4895 61.8583 32.2311 61.536 32.024C61.4638 31.9769 61.3885 31.9351 61.3153 31.8901C61.7223 31.9916 62.1177 32.1161 62.4933 32.2866C62.9829 32.5084 63.0823 32.7082 62.9526 33.2344C62.8176 33.7826 62.6408 34.3214 62.4797 34.8634C62.191 35.8332 62.2338 36.7591 62.7915 37.6379C62.9882 37.9475 63.1346 38.2875 63.3062 38.6129C63.9873 39.9039 64.1526 41.2765 63.9663 42.7088C63.9036 43.19 63.7414 43.6263 63.4935 44.0385C63.1681 44.5794 62.8333 45.1161 62.5236 45.6664C61.9556 46.6759 61.1625 47.5432 60.198 48.1824C58.6276 49.2234 56.87 49.735 55.0298 49.9139C53.9961 50.0143 52.9395 49.8668 51.8933 49.8448C50.7895 49.8218 49.6848 49.8051 48.581 49.8061C48.1615 49.8061 48.1228 49.8689 48.1019 50.2414C48.3027 50.211 48.5057 50.1472 48.7055 50.1545C49.6586 50.1932 50.6127 50.2309 51.5627 50.3083C53.2062 50.4412 54.8467 50.4935 56.4735 50.1566C59.747 49.4787 62.2987 47.765 63.8439 44.7666C64.7489 43.0101 64.9696 41.1311 64.1651 39.2438C63.8 38.3859 63.3888 37.5468 62.9808 36.7088C62.8438 36.4285 62.8103 36.1083 62.8856 35.806C63.0886 34.992 63.2926 34.1791 63.4778 33.361C63.6588 32.5565 63.437 32.1391 62.6806 31.7792C62.5425 31.7133 62.3991 31.6589 62.2537 31.6097C61.7421 31.4381 61.2347 31.2477 60.7137 31.1117C59.7816 30.8679 59.0869 30.303 58.5063 29.5686C58.455 29.5037 58.4613 29.397 58.433 29.3123C58.341 29.0319 58.3064 28.7055 58.137 28.4847C57.8817 28.1531 57.5427 27.88 57.2121 27.6164C57.0845 27.5139 56.8805 27.4532 56.7152 27.4605C56.327 27.4783 55.9881 27.4145 55.7318 27.0996C55.3342 26.611 54.9199 26.135 54.5475 25.6276C54.1604 25.1003 53.7262 24.8785 53.201 25.0658C52.996 25.139 52.8861 25.1003 52.7815 24.9381C52.725 24.8513 52.6497 24.7728 52.611 24.6787C52.2385 23.7779 51.4099 22.7882 50.6755 22.1783L53.4301 12.91C53.4772 12.8514 53.7534 12.774 53.8172 12.7217C53.8988 12.6548 53.8172 12.7217 53.8622 12.6192C53.9511 12.4173 54.0286 12.2101 54.1175 11.9883C54.2043 12.1013 54.2765 12.1986 54.3518 12.2938C54.74 12.7866 55.1731 13.2239 55.7192 13.5514C56.2193 13.8516 56.6786 13.8966 57.1996 13.5775C57.7289 13.2542 58.2876 12.9718 58.8578 12.7249C59.6278 12.3911 60.4208 12.1107 61.2023 11.8042C62.0173 11.4841 62.8072 11.0907 63.6985 11.0018C63.8837 10.9829 64.0207 10.9997 64.1411 11.1545C64.343 11.415 64.569 11.6577 64.7709 11.9203C65.8212 13.2846 66.9438 14.585 68.2202 15.7452C68.3865 15.8969 68.6104 16.0434 68.8249 16.0737C69.9255 16.2327 71.0302 16.3635 72.1361 16.4786C72.451 16.511 72.791 16.5142 73.0933 16.4336C74.059 16.1763 75.0121 15.8739 75.9683 15.5831C76.0174 15.5684 76.0509 15.4983 76.0917 15.4533C76.0342 15.4188 75.9787 15.3571 75.9191 15.3529C75.6837 15.3372 75.4473 15.3424 75.2108 15.333C74.0203 15.2849 72.8475 15.3351 71.7804 15.9618C71.7103 16.0026 71.6255 16.0183 71.5533 16.0549C71.3483 16.1606 71.0951 16.0988 70.9424 15.9273C69.417 14.2188 67.8425 12.5554 66.1121 11.0489C66.0232 10.9714 65.9395 10.8867 65.8265 10.78C68.081 10.418 70.2874 10.5153 72.4175 10.6963C72.5661 11.2916 72.6874 11.8209 72.8339 12.344C72.9165 12.638 73.1268 12.7604 73.4428 12.705C74.2044 12.57 74.9765 12.4811 75.7287 12.3053C76.3418 12.162 76.9517 11.9664 77.5271 11.7121C79.3642 10.8982 81.3018 10.5279 83.2812 10.3102C83.5898 10.2768 83.8765 10.2956 84.1673 10.3971C84.8986 10.6513 85.6341 10.8909 86.3643 11.1462C86.811 11.302 87.263 11.3763 87.7275 11.2675C88.6042 11.0614 89.3993 10.6806 90.0992 10.1115C90.2237 10.011 90.3262 9.88235 90.4874 9.71705C90.2425 9.71705 90.0846 9.71078 89.9266 9.7181C89.2288 9.75053 88.5299 9.83527 87.8342 9.8133C85.7763 9.74739 83.7206 9.6229 81.6638 9.55175C79.8507 9.48898 78.0638 9.64591 76.3282 10.2401C75.5006 10.5237 74.6427 10.7162 73.7409 10.9662C73.7995 10.8721 73.8163 10.8302 73.8456 10.7999C74.1353 10.5027 74.4304 10.2119 74.7149 9.90955C74.806 9.81226 74.8698 9.68985 74.9461 9.57791C74.8164 9.54234 74.6877 9.48061 74.5559 9.47434C73.9711 9.44818 73.3852 9.43667 72.7994 9.42098C70.2843 9.35193 67.8069 9.70136 65.3316 10.0759C65.1988 10.0958 65.0512 10.079 64.9215 10.0414C64.4507 9.90432 63.9841 9.75053 63.5165 9.60511C63.1639 9.49526 62.8302 9.52874 62.5121 9.7317C61.8363 10.1627 61.1604 10.5948 60.4752 11.0112C60.2806 11.1294 60.0609 11.233 59.8391 11.278C59.1434 11.4192 58.4424 11.5385 57.7404 11.6462C57.5867 11.6693 57.4308 11.6452 57.2916 11.5761C56.8355 11.3491 56.3773 11.12 55.9494 10.8459C55.3018 10.4295 54.627 10.1784 53.8444 10.2966C53.6687 10.3238 53.4971 10.3102 53.3715 10.1334C53.3339 10.0811 53.2062 10.0571 53.1309 10.0728C52.9144 10.1188 52.7062 10.2381 52.4917 10.2475C51.6872 10.281 51.434 10.8721 51.1337 11.4715C50.9977 11.7425 51.1473 12.1599 51.1442 12.4403L48.3781 21.6656C48.3163 21.9983 48.0307 22.263 47.7807 22.3708C47.2796 22.5873 46.7774 22.7913 46.4206 23.2527C46.2627 23.4567 46.0042 23.5823 45.7898 23.7423L45.7448 23.6994C45.9049 23.4483 46.0649 23.1973 46.2375 22.9273H46.0199C46.4855 22.5779 46.6623 22.0203 47.2639 21.9261C47.1906 21.8707 47.1394 21.833 47.0839 21.7912C47.1341 21.7692 47.1739 21.7525 47.2952 21.7002C46.9458 21.5558 46.6675 21.4459 46.3934 21.3256C46.3181 21.2932 46.1936 21.2482 46.0974 21.2262C46.1999 21.1938 46.3338 21.0379 46.4081 20.9877C46.5681 20.8789 46.8171 20.7345 46.9856 20.6383L46.6089 20.7282C46.2564 20.8255 45.8714 20.9176 45.5188 21.0149L45.7542 20.8465C46.2051 20.5075 46.565 20.1078 46.6947 19.5011C46.3683 19.999 46.2072 20.0221 46.1141 20.1476C46.1141 20.1476 46.3715 19.6998 46.3505 19.6841C46.565 19.3912 46.7575 19.2814 46.972 18.9884C46.4886 19.1684 46.0231 19.4069 45.5523 19.6329C45.2311 19.7877 44.9068 19.9394 44.5741 20.066C44.2812 20.1779 44.0259 20.0922 43.824 19.8139C44.2079 19.7249 44.4078 19.4446 44.5793 19.1359C44.889 18.5794 45.2447 18.0594 45.7657 17.6734C45.8212 17.6326 45.8682 17.5813 45.9195 17.5353C44.6609 17.7979 43.417 18.0364 42.1511 17.8198C42.444 17.3082 42.7297 16.8082 43.0163 16.3081C42.5298 16.4838 42.0936 16.6983 41.6594 16.9138C41.1196 17.1816 40.5567 17.2559 39.9834 17.0603C39.5838 16.9232 39.1799 16.7747 38.8117 16.5717C36.6304 15.3728 34.3999 15.3383 32.1234 16.2568C30.7078 16.827 29.4378 17.6346 28.2964 18.6421C27.1257 19.6758 26.1935 20.9082 25.3367 22.2055C24.8335 22.9671 23.7841 23.351 22.9012 23.1146C22.7024 23.0613 22.5193 22.9545 22.3289 22.8729C23.1188 23.7507 24.0802 23.6021 25.0553 23.3238C24.6786 24.3742 24.8774 25.3535 25.3628 26.3065C25.9058 27.3705 26.9719 28.0589 27.6666 28.174C27.4375 28.0045 27.1717 27.223 27.2031 26.8411L27.7816 28.1531V27.743C28.2116 28.3979 28.1457 28.9733 27.608 29.4828C27.5808 29.5089 27.5515 29.533 27.5253 29.5602C27.2502 29.8416 27.2198 30.1335 27.5065 30.4013C27.7136 30.5949 27.9888 30.7162 28.2378 30.8606C28.3204 30.9087 28.4177 30.9297 28.514 30.9652C28.175 31.5365 28.1876 31.5877 28.6939 31.9832C28.7525 32.0282 28.7975 32.1108 28.8163 32.1841C28.8906 32.477 29.0674 32.68 29.3551 32.7459C29.5957 32.8013 29.7338 32.9405 29.8238 33.1497C29.9054 33.3401 29.9891 33.5305 30.0613 33.7241C30.191 34.0672 30.3155 34.4125 30.7089 34.6332C30.2454 34.7546 29.8364 34.8592 29.4294 34.969C27.6122 35.4597 25.8431 36.079 24.1681 36.9505C23.6544 37.2183 23.3416 37.618 23.1889 38.1651C22.9514 39.0188 22.6971 39.8683 22.467 40.7252C22.0516 42.2746 21.5945 43.8094 20.9395 45.2793C20.6048 46.0315 20.1057 46.6236 19.4414 47.1195C18.4517 47.8581 17.4536 48.6009 16.5549 49.4431C15.1782 50.7352 14.6823 52.3254 15.2535 54.1866C15.4251 54.7442 15.5328 55.3206 15.6992 55.8803C15.8393 56.3511 15.7441 56.71 15.3832 57.0594C14.9208 57.5082 14.5986 58.0491 14.6216 58.7385C14.6237 58.8118 14.5149 58.9133 14.4333 58.9624C13.7815 59.3579 13.1172 59.7345 12.4737 60.1425C12.3388 60.2283 12.2122 60.4145 12.1881 60.5704C12.1431 60.8539 12.1379 61.1573 12.1881 61.4398C12.2875 61.9964 12.4193 62.5477 12.5669 63.0938C12.8221 64.0365 12.8326 64.91 12.1034 65.6654C11.778 66.0023 11.6734 66.494 11.845 66.9302C11.9308 67.1489 12.0228 67.3728 12.1547 67.5663C12.3545 67.8593 12.5438 68.1365 12.3419 68.5048C12.322 68.5414 12.3367 68.5979 12.3336 68.645C12.3168 68.9138 12.3409 69.1932 12.275 69.4495C11.959 70.6725 11.6284 71.8923 11.2842 73.1091C11.0959 73.7723 11.2392 74.3425 11.6964 74.8384C11.9496 75.1125 12.1243 75.3667 12.1463 75.7936C12.1735 76.3334 12.1703 76.8586 12.118 77.3964C12.0103 78.5231 11.936 79.653 11.8701 80.7829C11.846 81.1951 12.0186 81.5633 12.3848 81.7632C13.113 82.1607 13.8495 82.5583 14.6875 82.6754C15.1384 82.7382 15.5893 82.7445 15.9858 82.4327C16.1176 82.3281 16.2997 82.2392 16.4629 82.2319C16.9368 82.212 17.1042 82.1074 17.2507 81.6606C17.2967 81.5204 17.3459 81.3771 17.4201 81.2505C17.5896 80.9618 17.7738 80.6804 17.9558 80.3989C18.0144 80.309 18.0688 80.2054 18.1514 80.1426C18.6243 79.7785 18.7948 79.2942 18.6369 78.7167C18.5427 78.3714 18.413 78.0303 18.3607 77.6788C18.301 77.2666 18.1211 76.9266 17.8721 76.6149C17.4045 76.0258 16.9253 75.4452 16.442 74.8499C16.7171 74.67 16.8824 74.3875 16.8667 74.0182C16.8207 72.9438 17.1073 71.9258 17.4034 70.912C17.4421 70.7792 17.5708 70.6359 17.6963 70.572C17.9725 70.4318 18.2791 70.3555 18.5605 70.2257C19.1725 69.9464 19.3483 69.6127 19.2416 68.9703C19.6569 68.736 20.0775 68.5048 20.4918 68.262C20.6456 68.1721 20.792 68.0654 20.9291 67.9513C21.1048 67.8049 21.1331 67.65 20.9919 67.4356C20.8851 67.2734 20.8203 67.0589 20.8088 66.8643C20.7795 66.358 20.9814 65.9154 21.3193 65.5534C21.7054 65.1392 22.1123 64.7426 22.5298 64.3608C23.5278 63.4464 24.4956 62.5038 25.2656 61.3833C25.8284 60.5641 26.1684 59.6665 26.0952 58.6475C25.9989 57.3021 25.207 56.3448 23.9306 56.1419C23.4368 56.0634 22.9053 56.0697 22.4136 56.1586C21.5986 56.3072 20.8035 56.5583 19.9969 56.7581C19.3326 56.9234 18.663 57.0259 17.982 56.8449C17.5216 56.7225 17.1523 56.4631 16.8395 56.1712C17.2915 56.3187 17.7528 56.5164 18.2341 56.6137C18.9936 56.7675 19.7061 56.4819 20.4175 56.2601C21.0923 56.0498 21.7577 55.7956 22.4461 55.6397C23.8375 55.3248 25.0961 55.5811 26.1004 56.6702C26.2804 56.8659 26.4143 57.1033 26.5785 57.3325C26.9677 57.0291 27.3642 56.7382 27.7408 56.4244C28.7787 55.5602 29.8196 54.6992 30.8365 53.8099C31.5427 53.1916 32.1662 52.498 32.6339 51.6705C32.9352 51.1379 33.2564 50.6169 33.6058 50.1148C34.3371 49.0623 34.7252 47.9083 34.7692 46.6247C34.7932 45.9101 34.8319 45.1882 34.9585 44.4862C35.1176 43.6043 35.1782 42.7286 35.105 41.8383C34.8999 39.3348 32.9697 37.1169 30.5227 36.6053C30.0623 36.509 29.6638 36.3887 29.193 36.3563C28.1782 36.2862 26.2197 36.8626 24.8952 37.5531C25.7949 37.3795 26.6267 36.9003 27.5808 36.9537C27.0315 37.3052 26.4948 37.6828 25.9069 37.9423C25.3074 38.207 24.9538 38.6119 24.7916 39.2281C24.7079 39.5472 24.574 39.8537 24.5008 40.1738C24.1074 41.8833 23.7517 43.6033 23.3301 45.3054C23.1418 46.0629 23.3782 46.5922 23.9609 47.0295C24.5353 47.4606 25.1107 47.8885 25.6882 48.3143C25.9947 48.5402 26.3065 48.7589 26.6842 49.0309C24.9799 48.8719 23.395 49.0801 21.8163 49.4054C20.2543 49.7277 18.6756 49.9788 17.1848 50.573C19.7772 49.9537 22.4304 49.8124 25.0678 49.5509C24.9914 49.6011 24.9109 49.6272 24.8282 49.6398C23.7444 49.7967 22.6584 49.9401 21.5767 50.1095C20.0942 50.3418 18.6107 50.574 17.1356 50.8461C16.3457 50.9915 16.1271 51.2886 16.0664 52.1004C16.0496 52.3212 16.0601 52.544 16.0978 52.7627C16.2379 53.5651 16.397 54.3634 16.5455 55.1647C16.7265 56.1429 16.8353 57.0992 15.9691 57.866C15.7619 58.0491 15.719 58.3305 15.7672 58.6266C15.8864 59.3621 15.991 60.1017 16.0821 60.8414C16.1459 61.3561 16.1783 61.875 16.2243 62.3918L16.1511 62.4034C15.9576 61.4754 15.763 60.5474 15.5694 59.6194L15.4868 59.6299C15.5224 60.5495 15.5569 61.4691 15.5924 62.3887L15.5349 62.396C15.3435 61.5633 15.151 60.7305 14.9469 59.8412C14.5243 60.2733 14.0943 60.6238 13.8987 61.1532C13.8307 61.3373 13.8129 61.5591 13.8411 61.7547C13.929 62.3835 14.2732 62.894 14.6634 63.3742C14.8319 63.5814 15.0181 63.7718 15.2085 63.9831C14.8873 63.9224 14.5954 63.8398 14.2983 63.8157C13.7815 63.7739 13.4498 64.0658 13.4059 64.5836C13.3881 64.7887 13.3797 65.0073 13.431 65.203C13.6026 65.8684 13.793 66.5285 13.9928 67.1866C14.1497 67.7055 14.3307 68.2171 14.5013 68.7328C13.7208 68.2223 13.0387 67.6312 12.4947 66.8989C12.2572 66.5787 12.2844 66.3799 12.5365 66.0535C12.6401 65.9186 12.7468 65.7868 12.8493 65.6507C13.2092 65.1716 13.4132 64.6443 13.2971 64.0375C13.1182 63.1022 12.9508 62.1638 12.7332 61.2369C12.6411 60.8445 12.7384 60.5767 13.0366 60.3507C13.1569 60.2597 13.2814 60.1729 13.4122 60.0986C13.9049 59.8203 14.405 59.5535 14.8936 59.2679C14.9773 59.2187 15.0725 59.1037 15.0767 59.0158C15.106 58.3326 15.4104 57.8137 15.9576 57.4151C16.2986 57.1661 16.3928 56.8156 16.3028 56.4076C16.0967 55.4776 15.8875 54.5485 15.6866 53.6174C15.3717 52.1528 15.8488 50.9517 16.8981 49.9265C17.8135 49.032 18.8022 48.2316 19.8557 47.5087C20.4939 47.0703 20.9866 46.5044 21.2984 45.7982C21.5945 45.1265 21.8905 44.4496 22.1207 43.7539C22.7055 41.9911 23.2872 40.2261 23.803 38.4424C24.0331 37.6473 24.5133 37.2319 25.2624 37.006C26.4906 36.6335 27.698 36.1941 28.9335 35.8478C34.0034 34.425 37.6148 33.6477 38.2635 33.4688C37.5677 33.7795 29.9504 35.8656 29.2536 36.1763C30.6074 36.3165 31.5448 36.5216 32.6412 37.3941C33.8517 38.3566 34.8016 39.4823 35.0945 41.0464C35.3163 42.2307 35.354 43.4285 35.2494 44.6296C35.219 44.9738 35.1856 45.3169 35.1531 45.6601L35.2013 45.6695C35.5685 44.5145 35.9357 43.3605 36.3039 42.2055C36.3395 42.2537 36.3364 42.2903 36.327 42.3248C35.9681 43.5844 35.6072 44.843 35.2515 46.1037C35.2107 46.247 35.1688 46.3987 35.1699 46.5452C35.1835 47.9502 34.7462 49.2129 33.9856 50.3805C33.7596 50.7268 33.5169 51.0752 33.3652 51.456C32.9781 52.4248 32.3776 53.2356 31.6369 53.9501C30.1586 55.375 28.5569 56.6535 26.907 57.8723C26.7344 57.9999 26.6319 58.0983 26.6988 58.3483C26.77 58.6161 27.9595 58.9792 27.948 59.2595C27.9375 59.52 35.195 55.1281 35.195 55.1281M18.3931 79.4082C18.2173 79.7963 17.8773 80.0275 17.5666 80.219C17.4149 80.3131 17.212 80.2734 17.1147 80.1227C17.0257 79.9846 16.9651 79.7995 17.0655 79.5975C17.1743 79.2146 17.734 79.0085 18.0071 78.8244C17.7738 78.634 17.3459 79.3632 17.734 78.3505C17.8282 78.1046 16.262 77.6935 16.0172 77.3357C15.8059 77.0271 17.1649 76.5814 16.9515 76.2539C17.53 76.6473 18.3188 78.4007 18.3921 79.4071L18.3931 79.4082ZM16.8311 79.4458C16.7391 79.5442 16.6763 79.6111 16.5926 79.7001C16.4639 79.5306 16.2421 79.29 16.0538 79.065C16.556 79.0472 16.8311 79.4458 16.8311 79.4458ZM16.1501 80.3937C16.1689 80.4345 15.9921 80.7013 15.9659 80.7525C15.7107 80.3655 15.3707 79.8246 15.288 79.3998C15.7734 79.6007 15.9638 79.9993 16.1501 80.3937ZM14.6415 75.3919C14.9731 75.3144 14.9972 75.6691 15.0097 75.8145C15.0411 76.1639 15.2911 76.3742 15.4115 76.6588C15.4857 76.8345 15.514 77.0291 15.5632 77.2143C15.5318 77.2258 15.5004 77.2363 15.468 77.2478C15.3571 77.1191 15.2462 76.9894 15.1353 76.8607C15.1164 76.8701 15.0966 76.8795 15.0777 76.889C15.1436 77.1589 15.1802 77.4393 15.2807 77.6945C15.4449 78.113 15.3539 78.4896 15.0997 78.8087C14.6906 79.3214 14.2376 79.7984 13.8139 80.2786C14.064 80.3655 13.952 80.7055 14.1361 80.8906C14.0221 81.0141 13.9217 81.125 13.7606 81.3008C14.1267 81.4232 14.4573 81.534 14.8193 81.6544V82.076C14.383 82.1147 13.9844 81.9693 13.5974 81.7674C13.3389 81.6324 13.0805 81.4964 12.8158 81.3729C12.5658 81.2558 12.3869 81.0957 12.4005 80.7965C12.4361 79.9679 12.4591 79.1372 12.5145 78.3097C12.5459 77.8399 12.6432 77.3744 12.6872 76.9046C12.7102 76.663 12.6757 76.4161 12.6819 76.1713C12.6903 75.8323 12.7133 75.4933 12.7322 75.1209C13.4185 75.3971 14.0043 75.5404 14.6404 75.3929L14.6415 75.3919ZM13.2218 69.8711C13.5649 69.982 13.6423 70.1431 13.5806 70.4611C13.3557 71.6182 13.1789 72.7847 12.9696 73.945C12.9205 74.2191 12.8169 74.4827 12.7301 74.7767C12.6411 74.7369 12.5512 74.6909 12.4581 74.6543C12.2091 74.5559 12.162 74.399 12.2352 74.1396C12.5281 73.0965 12.8117 72.0514 13.0722 70.9999C13.1611 70.639 13.1726 70.2592 13.2218 69.8711ZM12.7625 69.8952C12.7771 69.8355 12.8012 69.778 12.8211 69.7183C12.9456 71.2835 12.5616 72.7429 11.9444 74.1678C11.71 73.9763 11.7759 73.7451 11.8293 73.5317C11.9412 73.085 12.0814 72.6445 12.1944 72.1978C12.389 71.432 12.5721 70.662 12.7614 69.8952H12.7625ZM31.3575 22.8081C31.3188 23.1523 31.1106 23.395 30.8627 23.6136C31.028 23.3448 31.1933 23.0769 31.3575 22.8081ZM30.9694 34.1478C30.7936 34.1404 30.5698 33.9615 30.4683 33.7983C30.2454 33.4405 30.076 33.0482 29.9086 32.659C29.8489 32.5199 29.783 32.4289 29.6575 32.3766C29.602 32.3619 29.5529 32.3473 29.5121 32.3326C29.5121 32.3326 29.5121 32.3326 29.511 32.3326C29.5047 32.3305 29.4974 32.3263 29.4901 32.3242C29.1626 32.1903 29.125 31.8838 29.125 31.8838L29.0256 31.8022L28.9492 31.7907L28.6981 31.5982C28.6981 31.5982 28.5945 31.4758 28.6803 31.5281L28.8216 31.2059C28.9869 30.8062 28.9126 30.6618 28.4962 30.5572C28.3686 30.5258 28.2378 30.4934 28.1217 30.4348C27.7199 30.2298 27.6864 30.0017 27.9271 29.6334C28.3727 28.9513 28.538 28.2357 28.0735 27.4856C27.8402 27.11 27.745 26.7125 27.834 26.2689C27.9595 25.6412 28.0652 25.0093 28.1865 24.3805C28.2095 24.2633 28.266 24.1524 28.3079 24.0384C28.2367 24.6232 28.1656 25.2028 28.0861 25.8535C28.7724 24.8502 29.2976 24.0279 30.8093 23.2841C30.7141 23.6053 30.0937 24.3575 30.0937 24.3575C30.1073 24.3617 30.3092 24.188 30.3155 24.1828C30.5164 24.0101 30.9014 23.804 31.0102 23.7507C31.3931 23.5624 31.6076 23.373 31.8576 22.8321C32.2855 24.7289 32.5795 26.3714 32.7354 28.2587C32.8034 27.6896 32.7866 26.7261 32.7856 26.6424C32.7825 26.5922 32.7804 26.5419 32.7783 26.4917C32.7626 26.181 32.7437 25.8692 32.7239 25.5585C32.704 25.253 32.682 24.9475 32.6852 24.64C32.9059 25.7793 33.09 26.9217 33.0011 28.0903C32.8881 29.5864 32.7783 31.0824 32.6663 32.5785C32.66 32.6632 32.6538 32.749 32.6318 32.8306C32.5659 33.0765 32.66 33.3725 32.4069 33.5588C31.9758 33.8758 31.5218 34.1718 30.9694 34.1488V34.1478ZM28.6542 31.4946L28.6667 31.5103C28.6605 31.503 28.6531 31.4946 28.6542 31.4946ZM34.8121 32.1119C34.334 32.5042 33.8422 32.8829 33.3809 33.2941C32.931 33.6958 32.5199 34.1404 32.0752 34.5474C31.9131 34.6949 31.7007 34.787 31.4883 34.8686C32.4738 33.8015 33.4981 32.7888 34.8131 32.1119H34.8121ZM34.9878 32.9405C34.2921 33.4405 33.6016 33.949 32.8954 34.4334C32.6967 34.5704 31.7059 34.9554 31.481 35.0548L32.7542 34.1394C33.6445 33.5943 34.5484 33.0712 35.4795 32.5837C35.3153 32.7019 35.151 32.8212 34.9868 32.9394L34.9878 32.9405ZM38.5407 30.1356C37.7069 30.462 36.8553 30.7497 36.0372 31.1138C34.8696 31.6338 33.7847 32.2991 32.8358 33.1685C32.818 33.1853 32.7919 33.1936 32.7521 33.2146C34.0306 31.2132 34.651 29.0329 34.7399 26.6539C34.9324 26.86 35.1019 27.0399 35.2996 27.2513C35.2159 27.2429 35.1667 27.2377 35.0632 27.2272C35.2128 27.3977 35.3237 27.5358 35.4482 27.6624C35.7317 27.9522 36.0424 28.2179 36.3029 28.5266C36.6199 28.9022 37.0394 29.0695 37.4809 29.216C37.5824 29.2495 37.6828 29.2861 37.7707 29.3698C37.482 29.2997 37.1932 29.2296 36.8804 29.1543C37.4213 29.6826 38.094 29.6439 38.7562 29.7025C38.5376 29.7339 38.32 29.7663 38.1013 29.7977C38.0521 29.805 38.0019 29.8134 37.9527 29.8238C37.6713 29.8803 37.6253 29.8782 37.6274 29.8992C37.9716 29.872 38.7165 29.8238 39.0554 29.7977C39.0052 30.076 38.7374 30.0582 38.5397 30.1356H38.5407ZM49.9045 17.5876C49.9275 17.5844 49.9505 17.5823 49.9746 17.5792C50.1158 17.7508 50.257 17.9223 50.4244 18.1274C50.1817 18.2101 49.9609 18.2854 49.7161 18.368C49.5655 18.0332 49.9107 17.8564 49.9055 17.5876H49.9045ZM49.6011 18.9005C49.7674 19.1014 49.9327 19.3033 50.1231 19.5345C49.9118 19.6224 49.7214 19.7019 49.5425 19.7772C49.1062 19.4571 49.5624 19.1924 49.6 18.9005H49.6011ZM40.132 29.5225C40.132 29.5225 40.2722 29.488 40.7095 29.1899C41.1468 28.8927 41.559 28.921 41.559 28.921C41.3665 28.809 40.8068 28.831 40.8068 28.831C40.8068 28.831 41.4627 28.717 42.0151 28.5946C42.5665 28.4722 43.0655 27.8685 43.0655 27.8685C42.7935 28.0202 42.4095 28.0526 42.4095 28.0526C42.987 27.7377 43.0048 27.5452 43.0048 27.5452C42.8563 27.4929 42.7506 27.4929 42.7506 27.4929C43.1272 27.3789 43.3103 27.2387 43.3103 27.2387C42.8374 27.3967 42.4786 27.177 42.4786 27.177L43.7141 26.612C43.7738 26.5796 43.8323 26.5472 43.893 26.5168C44.164 26.3798 44.4444 26.2657 44.708 26.1538C44.4193 26.248 44.0541 26.1266 44.0541 26.1266C44.5009 26.0042 44.8597 25.7594 44.8597 25.7594C44.8597 25.7594 44.7289 25.6977 44.3356 25.7772C43.9432 25.8556 43.5206 25.7249 43.5206 25.7249C43.5206 25.7249 43.9056 25.7249 44.3084 25.5669C44.7112 25.4089 45.1516 24.9434 45.1516 24.9434C45.0145 24.8848 44.4653 24.8638 44.2466 24.7697C44.6003 24.5688 45.3064 24.3418 45.6914 24.1221C45.6621 24.1671 45.6328 24.211 45.6046 24.2539C45.6036 24.2769 45.5753 24.3219 45.5094 24.3983C45.456 24.4799 45.4037 24.5584 45.3525 24.6358C45.1275 25.0825 45.1495 25.6453 45.1495 25.6453C44.9424 25.7416 44.8576 26.0889 44.8576 26.0889C44.9225 26.3065 44.9434 26.6058 45.093 26.8129C45.2489 27.0295 45.5282 27.1561 45.7689 27.3339C45.7322 27.5348 45.6977 27.766 45.6433 27.992C45.6318 28.039 45.5575 28.084 45.5031 28.107C45.3734 28.1614 45.2395 28.2138 45.1035 28.2462C44.4245 28.4073 43.87 28.7682 43.372 29.2495C42.9661 29.6418 42.5215 29.9923 42.0967 30.3595C42.0706 30.3438 42.0486 30.3396 42.0402 30.326C41.8927 30.076 41.9502 29.6606 41.469 29.6857C41.1855 29.7004 40.8999 29.6617 40.5923 29.6397C40.2418 29.668 40.1309 29.5225 40.1309 29.5225H40.132ZM42.8845 30.4024C43.4233 29.9452 43.9568 29.4838 44.504 29.0371C44.6086 28.9524 44.7593 28.921 44.8911 28.8739C45.4226 28.6835 45.9551 28.4973 46.5273 28.3529C46.4813 28.3864 46.4342 28.4178 46.3903 28.4533C46.0283 28.741 45.6339 28.9974 45.3127 29.3248C44.6463 30.0027 43.7779 30.2005 42.8845 30.4045V30.4024ZM44.0949 30.4233C43.9579 30.869 43.8355 31.2718 43.7099 31.6725C43.4296 32.5722 43.1429 33.4709 42.8688 34.3727C42.8113 34.5631 42.7286 34.6667 42.5162 34.7064C41.9691 34.809 41.4292 34.945 40.8852 35.0663C40.8151 35.082 40.7408 35.0841 40.6352 35.0967C40.9459 34.2555 41.2451 33.4437 41.5454 32.6318C41.718 32.1631 41.8854 31.6923 42.0685 31.2278C42.1051 31.1337 42.1846 31.0165 42.2704 30.9883C42.8583 30.7937 43.4536 30.62 44.0949 30.4244V30.4233ZM43.1659 45.2542C43.4118 44.4528 43.6848 43.6524 43.8397 42.8322C43.9872 42.0518 43.9129 41.2472 43.6765 40.4804C43.2685 39.1559 42.8301 37.8408 42.421 36.5163C42.3457 36.2715 42.2484 36.214 42.0005 36.2694C41.3204 36.4211 41.4041 36.304 41.5893 36.9442C41.6605 37.189 41.7138 37.4422 41.8153 37.6734C42.0277 38.1589 42.0172 38.6338 41.7808 39.1548C41.3884 37.9151 41.0045 36.7026 40.6101 35.4576C41.3236 35.2986 42.0182 35.1427 42.7359 34.9826C42.7767 35.0872 42.8186 35.1793 42.8489 35.2745C43.3542 36.8354 43.8679 38.3922 44.3523 39.9594C44.4444 40.2586 44.4496 40.5934 44.4465 40.9114C44.437 42.1124 44.165 43.2727 43.8146 44.4099C42.4828 48.7359 41.1321 53.0556 39.7951 57.3795C39.726 57.6024 39.5754 57.6254 39.3567 57.6515C40.6352 53.4929 41.9042 49.3751 43.1649 45.2542H43.1659ZM39.6539 61.8834C39.5461 60.5296 39.4394 59.1926 39.3306 57.8325C39.4634 57.8001 39.5534 57.7781 39.6748 57.7488C39.7972 59.1078 39.9185 60.447 40.042 61.806C39.9426 61.8259 39.8275 61.8489 39.6539 61.8834ZM40.3119 61.0925C40.269 61.0872 40.2261 61.082 40.1822 61.0778C40.0169 60.4376 40.0849 60.5464 40.0556 59.8862C40.0765 60.0233 40.111 59.5713 40.132 59.7094C40.1539 59.8548 40.1487 59.8151 40.1832 60.0431C40.2387 59.8894 40.2701 59.8088 40.2962 59.7251C42.9023 51.3618 45.501 42.9965 48.1238 34.6384C48.3383 33.9553 48.3969 33.3359 48.1584 32.6475C47.8738 31.8294 47.697 30.9747 47.4522 30.1429C47.3706 29.8646 47.3674 29.6188 47.4919 29.3572C47.5767 29.1804 47.6279 28.9879 47.7064 28.7661C47.4553 28.6678 47.2314 28.5684 46.9981 28.4973C46.9312 28.4774 46.8255 28.5213 46.7617 28.5684C46.3798 28.8509 46.0053 29.1428 45.6276 29.4315C45.6119 29.4127 45.5962 29.3928 45.5816 29.374C45.9708 29.0402 46.3788 28.7253 46.7408 28.3655C46.9856 28.1217 47.1927 28.1039 47.5034 28.2326C48.2787 28.5559 49.0717 28.8352 49.8574 29.1344C49.9609 29.1742 50.0603 29.2265 50.1817 29.2819C46.8883 39.8966 43.6001 50.4945 40.3119 61.0925ZM49.2391 33.9846C49.6785 32.499 50.1378 30.9485 50.597 29.4012C50.9287 29.5801 51.3022 29.7234 51.6035 29.9609C51.9079 30.2005 52.1465 30.5269 52.3954 30.8303C52.4436 30.8889 52.4174 31.0186 52.4049 31.1128C52.3641 31.4193 52.273 31.7258 52.2762 32.0313C52.2825 32.75 52.5869 33.315 53.2826 33.5891C53.5871 33.7094 53.654 33.881 53.563 34.1697C53.3224 34.9303 53.2648 35.7024 53.496 36.5613C52.8997 36.4452 52.3463 36.5707 51.8567 36.1293C51.0323 35.3854 50.1399 34.7158 49.2391 33.9856V33.9846ZM56.9349 27.9041C57.2215 28.129 57.5291 28.333 57.7886 28.5862C57.9905 28.7818 58.0449 29.0434 57.9581 29.3426C57.8754 29.6293 57.8576 29.9347 57.7948 30.2423C57.7132 29.3918 57.3764 28.6448 56.8658 27.9689C56.8888 27.948 56.9119 27.9261 56.9338 27.9051L56.9349 27.9041ZM54.1646 25.6098C54.2054 25.7039 54.2273 25.8127 54.2891 25.8881C54.6646 26.3442 55.0371 26.8024 55.4336 27.2397C55.7495 27.5881 56.1021 27.903 56.4264 28.2451C56.5143 28.3372 56.5572 28.4711 56.6493 28.6364C56.1262 28.4554 54.017 26.0335 54.0558 25.7186C54.0924 25.682 54.1279 25.6464 54.1646 25.6098ZM53.8967 26.2929C53.971 26.1496 54.1175 26.1496 54.1844 26.2929C54.6113 27.1989 55.4315 27.7419 56.1073 28.4188C56.7476 29.0601 56.6147 28.9095 56.4317 29.7893C55.919 29.3123 55.4148 28.8865 54.9628 28.4115C54.5182 27.9438 54.1258 27.427 53.6551 26.8652C53.7095 26.7344 53.7869 26.5053 53.8967 26.2929ZM53.7241 27.336C54.5046 28.129 55.2955 28.9126 56.0822 29.6993C56.235 29.8521 56.3218 30.0258 56.2831 30.2423C56.2548 30.2612 56.2266 30.28 56.1994 30.2988C55.2411 29.3185 54.2828 28.3372 53.3109 27.3433C53.4197 27.1655 53.5452 27.154 53.7252 27.337L53.7241 27.336ZM53.1372 31.1933C53.767 31.5637 54.4041 31.3544 55.0413 31.2435C55.1689 31.2216 55.2965 31.1965 55.4294 31.2038C54.7023 31.4162 54.0129 31.8482 53.2104 31.5605C52.9489 32.1244 53.0389 32.3337 53.5651 32.5994C54.5663 33.1058 55.557 33.6341 56.5509 34.154C56.575 34.1666 56.5949 34.1844 56.6179 34.199C56.6106 34.2147 56.6022 34.2294 56.5949 34.2451C55.8552 34.0107 55.1145 33.7764 54.4334 33.5598C54.3884 33.9124 54.379 34.2576 54.2932 34.5819C54.1677 35.0538 54.1907 35.5141 54.2775 35.9828C54.3393 36.3144 54.5171 36.553 54.8205 36.6932C55.2557 36.8951 55.6951 37.0886 56.1314 37.2905C56.2329 37.3376 56.3438 37.3847 56.4191 37.4621C56.7581 37.8084 57.1682 38.0114 57.6254 38.161C58.1516 38.3336 58.6621 38.5554 59.18 38.7552C59.1727 38.7772 59.1654 38.8002 59.158 38.8222C58.1547 38.5093 57.1598 38.162 56.145 37.891C55.1208 37.6169 54.0767 37.4182 53.0483 37.142C53.7335 37.2026 54.4188 37.2633 55.104 37.324C55.1072 37.3094 55.1103 37.2958 55.1124 37.2811C54.9011 37.1702 54.6877 37.0625 54.4784 36.9484C54.1122 36.7486 53.925 36.4211 53.9313 36.0204C53.9396 35.535 53.9993 35.0496 54.0495 34.5652C54.0683 34.3884 54.1415 34.2168 54.1583 34.04C54.1949 33.655 54.0516 33.428 53.7011 33.2554C53.4019 33.1078 53.0619 33.0336 52.8798 32.6956C52.6287 32.227 52.6926 31.7645 52.8683 31.3042C52.8934 31.2383 53.0828 31.1598 53.1351 31.1902L53.1372 31.1933ZM52.1203 24.5856C52.3672 25.1777 52.5294 25.32 53.0922 25.6882C52.9792 26.3317 52.6507 26.9175 52.1318 27.2314C51.2478 27.7639 50.3596 28.355 49.2872 28.4837C49.0152 28.5161 48.7829 28.4303 48.6417 28.1803C48.4597 27.858 48.2483 27.6101 47.8351 27.5578C47.4375 27.5086 47.0368 27.4134 46.6644 27.268C46.2386 27.1027 45.8285 26.8819 45.4372 26.6434C45.1819 26.4875 45.2112 26.2134 45.2949 25.9529C45.3755 25.7029 45.5659 25.6663 45.7887 25.6757C46.3903 25.6998 46.9939 25.7521 47.5945 25.728C47.8769 25.7165 48.1636 25.5763 48.4293 25.4549C48.6563 25.3503 48.8562 25.1892 49.0685 25.0522C49.0591 25.0365 49.0497 25.0197 49.0413 25.004C48.988 25.0166 48.9305 25.0218 48.8802 25.0417C48.2839 25.2834 47.652 25.1327 47.04 25.2122C46.5556 25.275 46.0702 25.3346 45.5868 25.3964C45.6245 24.8649 45.7887 24.6389 46.3035 24.5468C46.8025 24.4579 47.3151 24.4412 47.8163 24.3596C48.128 24.3094 48.4461 24.2351 48.7306 24.1043C49.0236 23.9693 49.2788 23.7528 49.4954 23.6095C48.8426 23.6952 48.1437 23.7653 47.4532 23.8877C47.0389 23.961 46.6382 24.1169 46.2145 24.2414C46.2229 24.0196 46.3024 23.8323 46.5252 23.7455C47.131 23.509 47.7357 23.2663 48.353 23.0644C48.5434 23.0016 48.7756 23.0832 48.9849 23.0613C49.17 23.0424 49.3688 23.0058 49.5268 22.9169C49.7412 22.7955 49.8113 22.8918 49.8825 23.0623C49.9264 23.169 49.9808 23.2715 50.0467 23.3667C50.0405 22.784 49.8804 22.648 49.3217 22.7212C49.2757 22.7275 49.2276 22.7317 49.1815 22.7286C48.8332 22.7035 48.4848 22.6752 48.1176 22.647C48.5047 22.4942 48.898 22.3007 49.3134 22.194C49.4943 22.1479 49.7507 22.2327 49.9233 22.3394C50.8418 22.9022 51.6882 23.5467 52.1213 24.5876L52.1203 24.5856ZM50.1587 17.1429C49.9861 16.8102 50.3376 16.6313 50.3742 16.3541C50.5112 16.5341 50.6493 16.714 50.8146 16.9306C50.5834 17.0059 50.3805 17.0707 50.1587 17.1429ZM50.7393 15.8823C50.596 15.9304 50.461 15.7452 50.5165 15.5695C50.5813 15.3665 50.6682 15.1709 50.7571 14.9428C50.9475 15.1845 51.1191 15.4021 51.3137 15.649C51.1139 15.7316 50.9308 15.8195 50.7393 15.8833V15.8823ZM51.1714 14.5975C51.1118 14.6185 51.003 14.6227 50.9768 14.5881C50.9203 14.5128 50.8544 14.3946 50.8764 14.3182C50.9423 14.0901 51.049 13.8725 51.1515 13.6194C51.3492 13.8715 51.5355 14.109 51.7342 14.3632C51.5302 14.45 51.3534 14.5316 51.1703 14.5975H51.1714ZM51.3702 13.2354C51.0898 12.9613 51.411 12.8044 51.4769 12.5564C51.6464 12.7646 51.7918 12.9425 51.9843 13.1779C51.7269 13.1528 51.5941 13.4541 51.3702 13.2354ZM52.7668 11.731C52.7522 11.7686 52.6737 11.7812 52.5733 11.8304C52.5158 11.7414 52.4049 11.6473 52.4174 11.5761C52.4561 11.3669 52.5335 11.1618 52.6225 10.9673C52.6444 10.9181 52.7763 10.8794 52.839 10.8982C52.9039 10.917 52.9991 11.0258 52.9876 11.0719C52.9332 11.2968 52.8516 11.5155 52.7668 11.731ZM53.7074 11.3585C53.6864 11.7833 53.5463 12.0438 53.3569 12.3001C53.2345 12.1589 53.1299 12.0522 53.0451 11.9318C53.0106 11.8827 53.0012 11.7979 53.0148 11.7383C53.0535 11.574 53.1163 11.415 53.1581 11.2508C53.2178 11.0164 53.1006 10.7904 52.8861 10.7329C52.6497 10.6701 52.4823 10.7674 52.3829 10.9861C52.3526 11.0541 52.3233 11.1263 52.3107 11.1995C52.25 11.55 51.9874 11.8325 51.5888 11.7791C51.615 11.5217 51.7322 11.2047 51.7949 10.938C51.8211 10.8271 51.9539 10.7047 52.0669 10.6576C52.6099 10.4326 53.1738 10.5289 53.4814 10.8794C53.5327 10.938 53.5578 11.0217 53.5881 11.097C53.5965 11.119 53.7084 11.3303 53.7074 11.3585ZM56.6597 13.5189C56.5373 13.567 56.3417 13.5534 56.2297 13.4854C55.8217 13.2385 55.397 12.9979 55.0507 12.6767C54.6877 12.3399 54.402 11.9193 54.0976 11.5238C54.0181 11.4213 53.9951 11.2759 53.9459 11.1503C53.9804 11.121 54.016 11.0928 54.0505 11.0635C55.193 11.731 56.3354 12.3974 57.5155 13.0858C57.2236 13.2375 56.9516 13.4049 56.6587 13.5189H56.6597ZM58.0512 12.7311C57.9047 12.8117 57.6526 12.8012 57.4915 12.7322C57.0552 12.547 56.6409 12.3074 56.2569 12.1097C57.3513 11.9915 58.4519 11.8733 59.6372 11.7456C59.0691 12.1045 58.5743 12.4424 58.0512 12.7311ZM75.4054 15.5433C74.2023 16.0434 73.0243 16.4232 71.7375 16.1804C72.8579 15.4774 74.0904 15.4052 75.4054 15.5433ZM69.0038 10.2736C67.9199 10.3155 66.8392 10.4243 65.7574 10.4996C65.658 10.5069 65.5576 10.4829 65.4582 10.4222C68.4252 9.74321 71.4247 9.55699 74.5203 9.72333C74.218 10.0184 73.9627 10.281 73.6907 10.5237C73.6384 10.5697 73.516 10.5582 73.4313 10.5435C71.9645 10.2925 70.4862 10.2161 69.0027 10.2726L69.0038 10.2736ZM83.6369 9.99534C83.0008 10.0696 82.3668 10.1648 81.7297 10.215C80.4742 10.3155 79.2889 10.6272 78.1475 11.1786C76.7937 11.8325 75.3521 12.2039 73.8403 12.2656C73.7462 12.2698 73.652 12.276 73.5578 12.276C73.2691 12.2781 73.1289 12.1641 73.1226 11.8534C73.1184 11.6473 73.2367 11.4893 73.4626 11.4328C74.332 11.2173 75.2046 11.0081 76.0687 10.7716C76.5583 10.6377 77.0563 10.5007 77.5125 10.2862C78.271 9.92838 79.0734 9.83527 79.8831 9.83109C81.0716 9.82376 82.2611 9.88235 83.4496 9.91374C83.5145 9.91583 83.5793 9.9242 83.6442 9.93048C83.6411 9.95245 83.639 9.97442 83.6369 9.99639V9.99534Z" fill="white"/>
</g>
<path d="M34.7409 26.6539C34.7409 26.6539 35.059 28.8216 35.9922 30.3543V29.2254C35.9922 29.2254 36.5111 29.8123 37.1754 30.1063L34.2178 24.5709" fill="white"/>
<path d="M34.9826 64.7542L34.6802 64.75L42.4011 38.6903L42.7035 38.7793L34.9826 64.7542Z" fill="black"/>
<path d="M47.711 35.1047L38.9293 62.872L39.2286 62.9667L48.0102 35.1993L47.711 35.1047Z" fill="black"/>
<path d="M46.0231 27.4626V27.9009L46.5127 27.7608" fill="white"/>
<path d="M42.6324 30.2031L34.017 59.3093L33.2094 58.6177L42.0643 29L42.6324 30.2031Z" fill="white"/>
<path d="M48.2086 25.6434L36.9003 61.8982L36.4965 61.5519L47.8623 25L48.2086 25.6434Z" fill="white"/>
</g>
<defs>
<clipPath id="clip0_2_450">
<rect width="130" height="96.5846" fill="white"/>
</clipPath>
</defs>
</svg>
