<svg width="375" height="111" viewBox="0 0 375 111" fill="none" xmlns="http://www.w3.org/2000/svg">
<rect y="3" width="375" height="108" fill="#232323"/>
<path d="M177.457 45.8639H172.102V52.2814H169.125V36.9009H177.457C179.897 36.9009 181.682 38.4109 181.682 40.4787V42.256C181.682 44.3239 179.897 45.8606 177.457 45.8606V45.8639ZM178.709 40.295C178.709 39.7638 178.203 39.3128 177.666 39.3128H172.102V43.3952H177.666C178.203 43.3952 178.709 42.9442 178.709 42.4397V40.2917V40.295Z" fill="white"/>
<path d="M183.916 52.278V36.9009H195.103V39.3663H186.889V43.3417H193.257V45.8606H186.889V49.8126H195.103V52.278H183.916Z" fill="white"/>
<path d="M207.575 52.278V47.6111L200.671 41.1937V52.2747H197.637V36.9009H200.195L207.575 43.8194V36.9009H210.609V52.278H207.575Z" fill="white"/>
<path d="M220.642 39.3663V52.278H217.456V39.3663H212.249V36.9009H225.876V39.3663H220.638H220.642Z" fill="white"/>
<path d="M239.715 52.278H236.712V47.4274H229.628V52.278H226.625V42.9208C226.625 41.8351 226.834 41.1435 227.755 40.3752L231.862 36.9009H234.481L238.588 40.3752C239.509 41.1435 239.718 41.8351 239.718 42.9208V52.278H239.715ZM236.708 43.0511C236.708 42.4932 236.678 42.3629 236.32 42.0455L233.138 39.236C232.989 39.4498 230.013 42.0455 230.013 42.0455C229.655 42.3629 229.625 42.4965 229.625 43.0511V45.0922H236.708V43.0511Z" fill="white"/>
<path d="M251.114 52.2781H246.471C244.031 52.2781 242.246 50.7681 242.246 48.7002V40.4822C242.246 38.4143 244.031 36.9043 246.471 36.9043H251.114C253.554 36.9043 255.339 38.4143 255.339 40.4822V41.5679H252.306V40.2951C252.306 39.7639 251.799 39.3129 251.263 39.3129H246.322C245.786 39.3129 245.28 39.7639 245.28 40.2951V48.8071C245.28 49.3383 245.786 49.786 246.322 49.786H251.263C251.799 49.786 252.306 49.335 252.306 48.8071V45.8105H248.766V43.3451H255.339V48.7002C255.339 50.7681 253.554 52.2781 251.114 52.2781Z" fill="white"/>
<path d="M267.272 52.2781H262.095C259.656 52.2781 257.87 50.7681 257.87 48.7002V40.4822C257.87 38.4143 259.656 36.9043 262.095 36.9043H267.272C269.712 36.9043 271.497 38.4143 271.497 40.4822V48.7002C271.497 50.7681 269.712 52.2781 267.272 52.2781ZM268.521 40.3485C268.521 39.8174 268.014 39.3664 267.478 39.3664H261.883C261.346 39.3664 260.84 39.8174 260.84 40.3485V48.8339C260.84 49.365 261.346 49.8127 261.883 49.8127H267.478C268.014 49.8127 268.521 49.3617 268.521 48.8339V40.3485Z" fill="white"/>
<path d="M283.966 52.278V47.6111L277.062 41.1937V52.2747H274.028V36.9009H276.586L283.966 43.8194V36.9009H287V52.278H283.966Z" fill="white"/>
<path d="M177.994 73.3211H173.35C170.91 73.3211 169.125 71.8111 169.125 69.7432V61.5251C169.125 59.4573 170.91 57.9473 173.35 57.9473H177.994C180.433 57.9473 182.219 59.4573 182.219 61.5251V62.6109H179.185V61.3381C179.185 60.8069 178.679 60.3559 178.142 60.3559H173.202C172.665 60.3559 172.159 60.8069 172.159 61.3381V69.8501C172.159 70.3813 172.665 70.8289 173.202 70.8289H178.142C178.679 70.8289 179.185 70.3779 179.185 69.8501V66.8535H175.645V64.3881H182.219V69.7432C182.219 71.8111 180.433 73.3211 177.994 73.3211Z" fill="white"/>
<path d="M197.843 73.321H194.84V68.4703H187.756V73.321H184.753V63.9637C184.753 62.878 184.962 62.1865 185.883 61.4182L189.99 57.9438H192.609L196.716 61.4182C197.637 62.1865 197.846 62.878 197.846 63.9637V73.321H197.843ZM194.836 64.094C194.836 63.5361 194.806 63.4059 194.448 63.0885L191.266 60.279C191.117 60.4928 188.141 63.0885 188.141 63.0885C187.783 63.4059 187.753 63.5395 187.753 64.094V66.1352H194.836V64.094Z" fill="white"/>
<path d="M211.561 73.321V62.3435L208.405 65.5773H206.56L203.404 62.3435V73.321H200.371V57.9438H202.841L207.572 62.848C207.69 62.5306 212.124 57.9438 212.124 57.9438H214.594V73.321H211.557H211.561Z" fill="white"/>
<path d="M217.129 73.321V57.9438H228.316V60.4093H220.102V64.3847H226.47V66.9035H220.102V70.8556H228.316V73.321H217.129Z" fill="white"/>
<path d="M239.357 73.3745H234.775C232.335 73.3745 230.55 71.8645 230.55 69.7966V68.8145H233.526V69.9269C233.526 70.4581 234.032 70.9091 234.569 70.9091H239.567C240.103 70.9091 240.609 70.4581 240.609 69.9269V67.9392C240.609 66.3758 237.1 66.9036 234.896 66.8535C232.487 66.7733 230.671 65.3435 230.671 63.2489V61.5251C230.671 59.4573 232.456 57.9473 234.896 57.9473H239.121C241.561 57.9473 243.346 59.4573 243.346 61.5251V62.5307H240.37V61.3915C240.37 60.8603 239.864 60.4093 239.327 60.4093H234.684C234.147 60.4093 233.641 60.8603 233.641 61.3915V63.4059C233.641 64.9694 237.15 64.4382 239.354 64.4649C241.733 64.5184 243.579 65.9749 243.579 68.0695V69.7933C243.579 71.8612 241.794 73.3712 239.354 73.3712L239.357 73.3745Z" fill="white"/>
<path d="M160.25 51.8503V51.8436L142.891 33.0557C142.02 32.2439 141.497 32 140.303 32H110.059C108.865 32 108.342 32.2439 107.471 33.0557L87.5205 54.436C87.1425 54.7868 86.9704 55.1943 87.0041 55.5985C87.0379 56.0028 87.2775 56.3702 87.6824 56.6375L90.9761 58.6219C91.8737 59.2132 92.7747 58.7521 93.5509 58.0038L111.753 39.2192C112.631 38.4041 113.154 38.1602 114.355 38.1602H136.003C137.205 38.1602 137.731 38.4041 138.605 39.2192C138.605 39.2192 145.942 46.9662 145.952 46.9763L145.999 47.0264C146.114 47.1734 146.181 47.3538 146.181 47.5509C146.181 48.0119 145.807 48.3894 145.344 48.3994H145.327C145.327 48.3994 145.327 48.3994 145.324 48.3994L112.155 48.3727V48.3793H109.02C107.825 48.3793 107.302 48.6232 106.432 49.435L96.48 59.9314C96.1291 60.2555 95.957 60.643 95.9975 61.0205C96.038 61.398 96.2843 61.7387 96.696 61.9826L123.507 77.7907C123.949 78.098 124.486 78.2784 125.066 78.2784C125.68 78.2784 126.247 78.0746 126.703 77.7339H126.74L156.248 60.4793C156.69 60.2488 156.993 59.7911 156.993 59.2599C156.993 58.5049 156.379 57.8936 155.62 57.8836V57.8769H132.602H131.512C130.317 57.8769 129.794 58.1208 128.923 58.9325L126.527 61.8256C126.419 61.9926 126.386 62.183 126.386 62.3968C126.386 62.9848 126.868 63.4625 127.462 63.4625L134.515 63.4725C135.423 63.4725 135.949 63.7164 136.091 64.1974C136.229 64.6785 135.909 65.1629 135.136 65.6339L126.787 70.5514H126.754C126.291 70.9122 125.707 71.1294 125.073 71.1294C124.536 71.1294 124.037 70.9723 123.615 70.7084H123.598L107.228 61.0205L107.221 60.9937C106.712 60.7465 106.361 60.2287 106.361 59.6274C106.361 59.1664 106.567 58.7555 106.894 58.4749L109.563 55.5752C110.441 54.76 111.095 54.5162 112.297 54.5162H158.772C158.772 54.5162 158.91 54.5061 158.974 54.5061C159.879 54.5061 160.621 53.7712 160.621 52.8759C160.621 52.4884 160.483 52.1309 160.25 51.8503Z" fill="white"/>
<rect width="374" height="1" fill="#F0C534" fill-opacity="0.5"/>
</svg>
