<svg width="300" height="344" viewBox="0 0 300 344" fill="none" xmlns="http://www.w3.org/2000/svg">
<g clip-path="url(#clip0_138_2235)">
<path fill-rule="evenodd" clip-rule="evenodd" d="M150 35.6512L32.1682 103.751V239.95L150 308.049L267.832 239.95V103.751L150 35.6512ZM154.949 1.32598C151.886 -0.448177 148.114 -0.448177 145.051 1.32598L4.94895 82.3021C1.88621 84.0762 0 87.3444 0 90.8834V252.826C0 256.365 1.88621 259.633 4.94895 261.408L145.051 342.384C148.114 344.158 151.886 344.158 154.949 342.384L295.051 261.408C298.114 259.643 300 256.365 300 252.826V90.8834C300 87.3444 298.114 84.0762 295.051 82.3021L154.949 1.32598Z" fill="#FF9211"/>
<path d="M150 84.9819L74.8505 128.421V215.289L149.505 258.438C149.813 258.616 150 258.942 150 259.297V274.172C150 274.938 149.178 275.414 148.515 275.031L63.7107 226.018C61.4136 224.692 60.0037 222.236 60.0037 219.584V124.135C60.0037 121.483 61.4136 119.027 63.7107 117.701L146.284 69.9763C148.581 68.6504 151.41 68.6504 153.707 69.9763L238.848 119.008C239.501 119.382 239.511 120.325 238.857 120.717C233.833 123.696 231.256 125.031 225.635 128.159C225.327 128.327 224.953 128.327 224.654 128.159L149.991 85.0099L150 84.9819Z" fill="#FF9211"/>
<path d="M162.372 173.69C162.372 173.325 162.578 172.989 162.895 172.812L237.615 132.996C238.278 132.641 239.072 133.127 239.072 133.874V230.733C239.072 231.088 238.885 231.415 238.577 231.592L163.857 275.022C163.194 275.405 162.372 274.928 162.372 274.163V173.69Z" fill="#FF9211"/>
</g>
<defs>
<clipPath id="clip0_138_2235">
<rect width="300" height="343.71" fill="white"/>
</clipPath>
</defs>
</svg>
